<?xml version="1.0" encoding="UTF-8"?>
<!DOCTYPE svg PUBLIC "-//W3C//DTD SVG 1.1//EN" "http://www.w3.org/Graphics/SVG/1.1/DTD/svg11.dtd">
<!-- Creator: CorelDRAW X7 -->
<svg xmlns="http://www.w3.org/2000/svg" xml:space="preserve" width="15.7894mm" height="84.0286mm" version="1.1" style="shape-rendering:geometricPrecision; text-rendering:geometricPrecision; image-rendering:optimizeQuality; fill-rule:evenodd; clip-rule:evenodd"
viewBox="0 0 149 790"
 xmlns:xlink="http://www.w3.org/1999/xlink">
 <defs>
  <style type="text/css">
   <![CDATA[
    .fil0 {fill:black}
   ]]>
  </style>
 </defs>
 <g id="Layer_x0020_1">
  <metadata id="CorelCorpID_0Corel-Layer"/>
  <path class="fil0" d="M137 70c7,-5 12,-13 12,-23 0,-14 -12,-26 -26,-28l-88 -18c-2,-1 -5,-1 -7,-1 -15,0 -28,13 -28,28 0,14 10,25 23,28l57 12 0 327 0 327 -57 12c-13,3 -23,14 -23,28 0,16 13,28 28,28 2,0 5,0 7,0l88 -19c14,-2 26,-14 26,-28 0,-10 -5,-18 -12,-23l0 -325 0 -325zm-109 706c8,0 14,-6 14,-14 0,-8 -6,-14 -14,-14 -8,0 -14,6 -14,14 0,8 6,14 14,14zm81 -188c7,0 14,6 14,14 0,8 -7,14 -14,14 -8,0 -15,-6 -15,-14 0,-8 7,-14 15,-14zm-81 -574c8,0 14,6 14,14 0,8 -6,14 -14,14 -8,0 -14,-6 -14,-14 0,-8 6,-14 14,-14zm81 188c7,0 14,-6 14,-14 0,-8 -7,-14 -14,-14 -8,0 -15,6 -15,14 0,8 7,14 15,14z"/>
 </g>
</svg>
