<?xml version="1.0" encoding="UTF-8"?>
<!DOCTYPE svg PUBLIC "-//W3C//DTD SVG 1.1//EN" "http://www.w3.org/Graphics/SVG/1.1/DTD/svg11.dtd">
<!-- Creator: CorelDRAW X7 -->
<svg xmlns="http://www.w3.org/2000/svg" xml:space="preserve" width="459.618mm" height="218.566mm" version="1.1" style="shape-rendering:geometricPrecision; text-rendering:geometricPrecision; image-rendering:optimizeQuality; fill-rule:evenodd; clip-rule:evenodd"
viewBox="0 0 37446 17807"
 xmlns:xlink="http://www.w3.org/1999/xlink">
 <defs>
  <style type="text/css">
   <![CDATA[
    .str0 {stroke:black;stroke-width:16.2942}
    .fil10 {fill:black}
    .fil4 {fill:#009933}
    .fil9 {fill:lime}
    .fil6 {fill:#6699FF}
    .fil0 {fill:#66FFCC}
    .fil2 {fill:#9999FF}
    .fil7 {fill:#CCCC33}
    .fil11 {fill:#FF0066}
    .fil5 {fill:fuchsia}
    .fil8 {fill:#FF6600}
    .fil1 {fill:#FF9966}
    .fil3 {fill:#FFCC99}
   ]]>
  </style>
 </defs>
 <g id="Layer_x0020_1">
  <metadata id="CorelCorpID_0Corel-Layer"/>
  <path class="fil0 str0" d="M12328 1302l0 0 0 0c-9,-31 -14,-63 -14,-97 0,-180 146,-326 326,-325 131,0 244,78 296,190l0 0 0 0c11,25 20,52 25,80l527 1705 0 0 0 1c1,2 1,4 2,6l0 0 0 1 0 1 2 6 0 0 0 1c1,2 1,5 2,7l0 0 0 0 0 1 2 7 0 0c0,3 1,5 1,7l0 1 0 1c1,2 1,5 2,7l0 0 0 0c0,3 0,5 1,8l0 0 0 1c0,6 1,11 1,16l0 0c1,2 1,5 1,8l0 0 0 1c0,5 0,11 0,16 0,3 0,5 0,8l0 0c0,3 0,5 0,8l0 1 0 0c0,5 -1,11 -1,16l0 1c-1,2 -1,5 -1,7l0 1c-1,2 -1,5 -1,7l-1 1c0,2 0,5 -1,7l0 1c0,2 -1,5 -1,7l0 1c-1,2 -1,4 -2,7l0 1c-1,2 -1,4 -2,7l0 1c-1,2 -1,4 -2,7l0 0c-1,3 -2,5 -2,7l-1 1c-1,5 -3,10 -4,14l-1 1 0 0 0 0c-1,3 -2,5 -2,7l0 0c-1,3 -2,5 -3,7l0 0 0 1 -1 0c-3,7 -6,14 -9,21l-1 1 -3 6 0 1c-2,2 -3,4 -4,6l0 0c-1,2 -3,4 -4,6l0 1c-2,2 -3,4 -4,6l0 1 -4 5 -1 2c-1,2 -2,3 -4,5l0 1c-3,4 -6,8 -9,12l-1 0 -4 5 -1 2 -4 4 0 1 -1 0 0 1 -4 4 -1 1 0 0 0 0c-2,2 -3,4 -5,6l0 0 0 0 0 0 0 0 -518 543c-13,16 -27,31 -43,45l0 0c-57,49 -132,79 -214,79 -179,0 -325,-146 -325,-326 0,-74 25,-143 67,-198l0 0 0 0c14,-18 29,-34 46,-49l386 -407 -114 -370c-37,-53 -58,-117 -58,-186l0 -2 -311 -1004zm636 1169c-90,0 -162,-73 -162,-163 0,-90 73,-163 163,-163 90,0 163,73 163,163 -1,90 -74,163 -164,163zm-325 -1103c-90,0 -162,-73 -162,-163 0,-90 73,-163 163,-163 90,1 163,74 162,164 0,90 -73,162 -163,162zm-1 2313c-90,0 -163,-73 -163,-163 0,-90 73,-163 163,-163 90,1 163,73 163,163 0,90 -73,163 -163,163z"/>
  <path class="fil0 str0" d="M16086 1302l0 0 0 0c-10,-31 -15,-63 -15,-97 0,-180 146,-326 326,-325 132,0 245,78 296,190l0 0 0 0c12,25 20,52 25,80l527 1705 0 0 0 1c1,2 2,4 2,6l0 0 0 1 1 1 1 6 0 0 1 1c0,2 1,5 1,7l0 0 0 0 0 1 2 7 0 0c1,3 1,5 1,7l1 1 0 1c0,2 1,5 1,7l0 0 0 0c0,3 1,5 1,8l0 0 0 1c1,6 1,11 2,16l0 0c0,2 0,5 0,8l0 0 0 1c1,5 1,11 1,16 0,3 0,5 0,8l0 0c-1,3 -1,5 -1,8l0 1 0 0c0,5 0,11 -1,16l0 1c0,2 -1,5 -1,7l0 1c0,2 -1,5 -1,7l0 1c-1,2 -1,5 -1,7l-1 1c0,2 0,5 -1,7l0 1c-1,2 -1,4 -2,7l0 1c0,2 -1,4 -2,7l0 1c0,2 -1,4 -2,7l0 0c0,3 -1,5 -2,7l0 1c-2,5 -3,10 -5,14l0 1 0 0 0 0c-1,3 -2,5 -3,7l0 0c-1,3 -2,5 -3,7l0 0 0 1 0 0c-3,7 -7,14 -10,21l0 1 -4 6 0 1c-1,2 -2,4 -3,6l-1 0c-1,2 -2,4 -3,6l-1 1c-1,2 -2,4 -4,6l0 1 -4 5 -1 2c-1,2 -2,3 -3,5l-1 1c-3,4 -6,8 -9,12l0 0 -4 5 -2 2 -3 4 -1 1 0 0 0 1 -5 4 0 1 0 0 -1 0c-1,2 -3,4 -4,6l0 0 0 0 -1 0 0 0 -518 543c-13,16 -27,31 -42,45l0 0c-58,49 -132,79 -214,79 -180,0 -326,-146 -326,-326 0,-74 25,-143 68,-198l0 0 0 0c13,-18 29,-34 46,-49l385 -407 -114 -370c-36,-53 -58,-117 -58,-186l0 -2 -310 -1004zm636 1169c-90,0 -163,-73 -163,-163 0,-90 73,-163 163,-163 90,0 163,73 163,163 0,90 -73,163 -163,163zm-325 -1103c-90,0 -163,-73 -163,-163 0,-90 73,-163 163,-163 90,1 163,74 163,164 0,90 -73,162 -163,162zm-2 2313c-90,0 -163,-73 -163,-163 0,-90 73,-163 163,-163 90,1 163,73 163,163 0,90 -73,163 -163,163z"/>
  <path class="fil0 str0" d="M14206 1302l0 0 0 0c-10,-31 -15,-63 -15,-97 1,-180 147,-326 327,-325 131,0 244,78 296,190l0 0 0 0c11,25 20,52 24,80l527 1705 0 0 1 1c0,2 1,4 1,6l1 0 0 1 0 1 2 6 0 0 0 1c1,2 1,5 2,7l0 0 0 0 0 1 1 7 0 0c1,3 1,5 2,7l0 1 0 1c0,2 1,5 1,7l0 0 0 0c1,3 1,5 1,8l0 0 1 1c0,6 1,11 1,16l0 0c0,2 0,5 1,8l0 0 0 1c0,5 0,11 0,16 0,3 0,5 0,8l0 0c0,3 0,5 0,8l0 1 0 0c-1,5 -1,11 -2,16l0 1c0,2 0,5 -1,7l0 1c0,2 0,5 -1,7l0 1c0,2 -1,5 -1,7l0 1c-1,2 -1,5 -2,7l0 1c0,2 -1,4 -1,7l-1 1c0,2 -1,4 -1,7l0 1c-1,2 -2,4 -2,7l-1 0c0,3 -1,5 -1,7l-1 1c-1,5 -3,10 -5,14l0 1 0 0 0 0c-1,3 -2,5 -3,7l0 0c-1,3 -2,5 -3,7l0 0 0 1 0 0c-3,7 -6,14 -10,21l0 1 -3 6 -1 1c-1,2 -2,4 -3,6l-1 0c-1,2 -2,4 -3,6l-1 1c-1,2 -2,4 -3,6l-1 1 -3 5 -1 2c-2,2 -3,3 -4,5l-1 1c-2,4 -5,8 -8,12l-1 0 -4 5 -1 2 -4 4 -1 1 0 0 0 1 -4 4 -1 1 0 0 0 0c-2,2 -3,4 -5,6l0 0 0 0 0 0 0 0 -519 543c-12,16 -26,31 -42,45l0 0c-57,49 -132,79 -214,79 -180,0 -326,-146 -325,-326 0,-74 25,-143 67,-198l0 0 0 0c14,-18 29,-34 46,-49l386 -407 -115 -370c-36,-53 -58,-117 -58,-186l0 -2 -310 -1004zm636 1169c-90,0 -163,-73 -163,-163 0,-90 73,-163 163,-163 90,0 163,73 163,163 0,90 -73,163 -163,163zm-325 -1103c-90,0 -163,-73 -163,-163 0,-90 73,-163 163,-163 90,1 163,74 163,164 0,90 -73,162 -163,162zm-2 2313c-90,0 -163,-73 -162,-163 0,-90 73,-163 163,-163 90,1 162,73 162,163 0,90 -73,163 -163,163z"/>
  <path class="fil0 str0" d="M17963 1302l0 0 0 0c-9,-31 -14,-63 -14,-97 0,-180 146,-326 326,-325 131,0 244,78 296,190l0 0 0 0c12,25 20,52 25,80l527 1705 0 0 0 1c1,2 1,4 2,6l0 0 0 1 0 1 2 6 0 0 0 1c1,2 1,5 2,7l0 0 0 0 0 1 2 7 0 0c0,3 1,5 1,7l0 1 0 1c1,2 1,5 2,7l0 0 0 0c0,3 0,5 1,8l0 0 0 1c1,6 1,11 1,16l0 0c1,2 1,5 1,8l0 0 0 1c0,5 0,11 0,16 0,3 0,5 0,8l0 0c0,3 0,5 0,8l0 1 0 0c0,5 -1,11 -1,16l0 1c-1,2 -1,5 -1,7l0 1c-1,2 -1,5 -1,7l0 1c-1,2 -1,5 -2,7l0 1c0,2 -1,5 -1,7l0 1c-1,2 -1,4 -2,7l0 1c-1,2 -1,4 -2,7l0 1c-1,2 -1,4 -2,7l0 0c-1,3 -1,5 -2,7l-1 1c-1,5 -3,10 -4,14l0 1 -1 0 0 0c0,3 -1,5 -2,7l0 0c-1,3 -2,5 -3,7l0 0 0 1 -1 0c-3,7 -6,14 -9,21l-1 1 -3 6 0 1c-1,2 -3,4 -4,6l0 0c-1,2 -2,4 -4,6l0 1c-1,2 -3,4 -4,6l0 1 -4 5 -1 2c-1,2 -2,3 -4,5l0 1c-3,4 -6,8 -9,12l0 0 -4 5 -2 2 -4 4 0 1 0 0 -1 1 -4 4 0 1 0 0 -1 0c-1,2 -3,4 -5,6l0 0 0 0 0 0 0 0 -518 543c-13,16 -27,31 -43,45l0 0c-57,49 -132,79 -213,79 -180,0 -326,-146 -326,-326 0,-74 25,-143 67,-198l0 0 1 0c13,-18 28,-34 45,-49l386 -407 -114 -370c-37,-53 -58,-117 -58,-186l0 -2 -311 -1004zm637 1169c-90,0 -163,-73 -163,-163 0,-90 73,-163 163,-163 90,0 163,73 163,163 0,90 -73,163 -163,163zm-325 -1103c-90,0 -163,-73 -163,-163 0,-90 73,-163 163,-163 90,1 163,74 163,164 0,90 -73,162 -163,162zm-2 2313c-90,0 -163,-73 -163,-163 0,-90 73,-163 163,-163 90,1 163,73 163,163 0,90 -73,163 -163,163z"/>
  <path class="fil0 str0" d="M13258 1302l-1 0 0 0c-9,-31 -14,-63 -14,-97 0,-180 146,-326 326,-325 131,0 245,78 296,190l0 0 0 0c12,25 20,52 25,80l527 1705 0 0 0 1c1,2 1,4 2,6l0 0 0 1 1 1 1 6 0 0 1 1c0,2 1,5 1,7l0 0 0 0 0 1 2 7 0 0c0,3 1,5 1,7l0 1 1 1c0,2 0,5 1,7l0 0 0 0c0,3 1,5 1,8l0 0 0 1c1,6 1,11 2,16l0 0c0,2 0,5 0,8l0 0 0 1c0,5 1,11 1,16 0,3 0,5 -1,8l0 0c0,3 0,5 0,8l0 1 0 0c0,5 -1,11 -1,16l0 1c0,2 -1,5 -1,7l0 1c-1,2 -1,5 -1,7l0 1c-1,2 -1,5 -2,7l0 1c0,2 -1,5 -1,7l0 1c-1,2 -1,4 -2,7l0 1c-1,2 -1,4 -2,7l0 1c0,2 -1,4 -2,7l0 0c-1,3 -1,5 -2,7l0 1c-2,5 -3,10 -5,14l0 1 0 0 0 0c-1,3 -2,5 -3,7l0 0c-1,3 -2,5 -3,7l0 0 0 1 0 0c-3,7 -7,14 -10,21l-1 1 -3 6 0 1c-1,2 -2,4 -4,6l0 0c-1,2 -2,4 -3,6l-1 1c-1,2 -2,4 -4,6l0 1 -4 5 -1 2c-1,2 -2,3 -3,5l-1 1c-3,4 -6,8 -9,12l0 0 -4 5 -2 2 -3 4 -1 1 0 0 -1 1 -4 4 0 1 0 0 -1 0c-1,2 -3,4 -5,6l0 0 0 0 0 0 0 0 -518 543c-13,16 -27,31 -42,45l0 0c-58,49 -132,79 -214,79 -180,0 -326,-146 -326,-326 0,-74 25,-143 68,-198l0 0 0 0c13,-18 29,-34 45,-49l386 -407 -114 -370c-37,-53 -58,-117 -58,-186l0 -2 -310 -1004zm636 1169c-90,0 -163,-73 -163,-163 0,-90 73,-163 163,-163 90,0 163,73 163,163 0,90 -73,163 -163,163zm-325 -1103c-90,0 -163,-73 -163,-163 0,-90 73,-163 163,-163 90,1 163,74 163,164 0,90 -73,162 -163,162zm-2 2313c-90,0 -163,-73 -163,-163 0,-90 73,-163 163,-163 90,1 163,73 163,163 0,90 -73,163 -163,163z"/>
  <path class="fil0 str0" d="M17015 1302l0 0 0 0c-10,-31 -15,-63 -15,-97 0,-180 146,-326 326,-325 132,0 245,78 296,190l0 0 1 0c11,25 20,52 24,80l527 1705 0 0 1 1c0,2 1,4 1,6l1 0 0 1 0 1 2 6 0 0 0 1c0,2 1,5 2,7l0 0 0 0 0 1 1 7 0 0c1,3 1,5 2,7l0 1 0 1c0,2 1,5 1,7l0 0 0 0c1,3 1,5 1,8l0 0 0 1c1,6 2,11 2,16l0 0c0,2 0,5 0,8l1 0 0 1c0,5 0,11 0,16 0,3 0,5 0,8l0 0c0,3 0,5 0,8l-1 1 0 0c0,5 0,11 -1,16l0 1c0,2 0,5 -1,7l0 1c0,2 0,5 -1,7l0 1c0,2 -1,5 -1,7l0 1c-1,2 -1,5 -2,7l0 1c0,2 -1,4 -1,7l-1 1c0,2 -1,4 -1,7l-1 1c0,2 -1,4 -1,7l-1 0c0,3 -1,5 -2,7l0 1c-1,5 -3,10 -5,14l0 1 0 0 0 0c-1,3 -2,5 -3,7l0 0c-1,3 -2,5 -3,7l0 0 0 1 0 0c-3,7 -6,14 -10,21l0 1 -3 6 -1 1c-1,2 -2,4 -3,6l-1 0c-1,2 -2,4 -3,6l-1 1c-1,2 -2,4 -3,6l-1 1 -3 5 -1 2c-2,2 -3,3 -4,5l-1 1c-2,4 -5,8 -9,12l0 0 -4 5 -1 2 -4 4 -1 1 0 0 0 1 -4 4 -1 1 0 0 0 0c-2,2 -3,4 -5,6l0 0 0 0 0 0 0 0 -519 543c-12,16 -27,31 -42,45l0 0c-57,49 -132,79 -214,79 -180,0 -326,-146 -325,-326 0,-74 25,-143 67,-198l0 0 0 0c14,-18 29,-34 46,-49l386 -407 -115 -370c-36,-53 -58,-117 -58,-186l0 -2 -310 -1004zm636 1169c-90,0 -163,-73 -163,-163 0,-90 73,-163 163,-163 90,0 163,73 163,163 0,90 -73,163 -163,163zm-325 -1103c-90,0 -163,-73 -163,-163 0,-90 73,-163 163,-163 90,1 163,74 163,164 0,90 -73,162 -163,162zm-2 2313c-90,0 -163,-73 -163,-163 1,-90 74,-163 164,-163 90,1 162,73 162,163 0,90 -73,163 -163,163z"/>
  <path class="fil0 str0" d="M15135 1302l0 0 0 0c-9,-31 -14,-63 -14,-97 0,-180 146,-326 326,-325 131,0 244,78 296,190l0 0 0 0c11,25 20,52 25,80l527 1705 0 0 0 1c1,2 1,4 2,6l0 0 0 1 0 1 2 6 0 0 0 1c1,2 1,5 2,7l0 0 0 0 0 1 2 7 0 0c0,3 1,5 1,7l0 1 0 1c1,2 1,5 1,7l1 0 0 0c0,3 0,5 1,8l0 0 0 1c0,6 1,11 1,16l0 0c1,2 1,5 1,8l0 0 0 1c0,5 0,11 0,16 0,3 0,5 0,8l0 0c0,3 0,5 0,8l0 1 0 0c0,5 -1,11 -1,16l-1 1c0,2 0,5 0,7l0 1c-1,2 -1,5 -2,7l0 1c0,2 0,5 -1,7l0 1c0,2 -1,5 -1,7l0 1c-1,2 -1,4 -2,7l0 1c-1,2 -1,4 -2,7l0 1c-1,2 -1,4 -2,7l0 0c-1,3 -2,5 -2,7l-1 1c-1,5 -3,10 -4,14l-1 1 0 0 0 0c-1,3 -2,5 -2,7l0 0c-1,3 -2,5 -3,7l0 0 0 1 -1 0c-3,7 -6,14 -9,21l-1 1 -3 6 -1 1c-1,2 -2,4 -3,6l0 0c-1,2 -3,4 -4,6l0 1c-2,2 -3,4 -4,6l0 1 -4 5 -1 2c-1,2 -2,3 -4,5l0 1c-3,4 -6,8 -9,12l-1 0 -4 5 -1 2 -4 4 0 1 -1 0 0 1 -4 4 -1 1 0 0 0 0c-2,2 -3,4 -5,6l0 0 0 0 0 0 0 0 -518 543c-13,16 -27,31 -43,45l0 0c-57,49 -132,79 -214,79 -179,0 -325,-146 -325,-326 0,-74 25,-143 67,-198l0 0 0 0c14,-18 29,-34 46,-49l386 -407 -114 -370c-37,-53 -58,-117 -58,-186l0 -2 -311 -1004zm636 1169c-90,0 -162,-73 -162,-163 0,-90 73,-163 163,-163 90,0 163,73 163,163 -1,90 -74,163 -164,163zm-325 -1103c-90,0 -162,-73 -162,-163 0,-90 73,-163 163,-163 90,1 163,74 162,164 0,90 -73,162 -163,162zm-1 2313c-90,0 -163,-73 -163,-163 0,-90 73,-163 163,-163 90,1 163,73 163,163 0,90 -73,163 -163,163z"/>
  <path class="fil0 str0" d="M18893 1302l0 0 0 0c-10,-31 -15,-63 -15,-97 0,-180 146,-326 326,-325 132,0 245,78 296,190l0 0 0 0c12,25 20,52 25,80l527 1705 0 0 0 1c1,2 2,4 2,6l0 0 0 1 1 1 1 6 0 0 1 1c0,2 1,5 1,7l0 0 0 0 0 1 2 7 0 0c1,3 1,5 1,7l1 1 0 1c0,2 1,5 1,7l0 0 0 0c0,3 1,5 1,8l0 0 0 1c1,6 1,11 2,16l0 0c0,2 0,5 0,8l0 0 0 1c1,5 1,11 1,16 0,3 0,5 0,8l0 0c-1,3 -1,5 -1,8l0 1 0 0c0,5 -1,11 -1,16l0 1c0,2 -1,5 -1,7l0 1c0,2 -1,5 -1,7l0 1c-1,2 -1,5 -1,7l-1 1c0,2 0,5 -1,7l0 1c-1,2 -1,4 -2,7l0 1c0,2 -1,4 -2,7l0 1c0,2 -1,4 -2,7l0 0c0,3 -1,5 -2,7l0 1c-2,5 -3,10 -5,14l0 1 0 0 0 0c-1,3 -2,5 -3,7l0 0c-1,3 -2,5 -3,7l0 0 0 1 0 0c-3,7 -7,14 -10,21l0 1 -4 6 0 1c-1,2 -2,4 -3,6l-1 0c-1,2 -2,4 -3,6l-1 1c-1,2 -2,4 -4,6l0 1 -4 5 -1 2c-1,2 -2,3 -3,5l-1 1c-3,4 -6,8 -9,12l0 0 -4 5 -2 2 -3 4 -1 1 0 0 0 1 -5 4 0 1 0 0 -1 0c-1,2 -3,4 -4,6l0 0 -1 0 0 0 0 0 -518 543c-13,16 -27,31 -42,45l0 0c-58,49 -132,79 -214,79 -180,0 -326,-146 -326,-326 0,-74 25,-143 68,-198l0 0 0 0c13,-18 29,-34 46,-49l385 -407 -114 -370c-37,-53 -58,-117 -58,-186l0 -2 -310 -1004zm636 1169c-90,0 -163,-73 -163,-163 0,-90 73,-163 163,-163 90,0 163,73 163,163 0,90 -73,163 -163,163zm-325 -1103c-90,0 -163,-73 -163,-163 0,-90 73,-163 163,-163 90,1 163,74 163,164 0,90 -73,162 -163,162zm-2 2313c-90,0 -163,-73 -163,-163 0,-90 73,-163 163,-163 90,1 163,73 163,163 0,90 -73,163 -163,163z"/>
  <path class="fil1 str0" d="M15150 5922l-977 0 0 -245 122 0 0 -244 0 -245 0 -244 -163 0 0 -245 -543 -253c-41,32 -93,51 -150,51 -134,0 -244,-109 -244,-244 0,-135 110,-245 244,-245 92,0 172,50 214,125l1299 263c60,-64 145,-104 239,-104 180,0 326,146 326,326 0,180 -146,326 -326,326l-163 0 0 244 0 245 0 244 122 0 0 245zm-1711 -1547c-67,0 -122,-55 -122,-122 0,-68 55,-123 122,-123 68,0 123,55 123,123 0,67 -55,122 -123,122zm1752 406c-90,0 -163,-73 -163,-163 0,-90 73,-163 163,-163 90,0 163,73 163,163 0,90 -73,163 -163,163z"/>
  <path class="fil1 str0" d="M15150 6281l-977 0 0 244 122 0 0 245 0 244 0 244 -163 0 0 245 -543 254c-41,-33 -93,-52 -150,-52 -134,0 -244,110 -244,245 0,135 110,244 244,244 92,0 172,-50 214,-124l1299 -264c60,64 145,104 239,104 180,0 326,-146 326,-326 0,-180 -146,-326 -326,-326l-163 0 0 -244 0 -244 0 -245 122 0 0 -244zm-1711 1547c-67,0 -122,54 -122,122 0,67 55,122 122,122 68,0 123,-55 123,-122 0,-68 -55,-122 -123,-122zm1752 -407c-90,0 -163,73 -163,163 0,90 73,163 163,163 90,0 163,-73 163,-163 0,-90 -73,-163 -163,-163z"/>
  <path class="fil2 str0" d="M15882 4457l978 0 0 244 -123 0 0 42 0 202 0 245 0 244 0 14 110 0c30,-9 61,-14 94,-14 180,0 326,146 326,326 0,180 -146,326 -326,326l-1140 0c-180,0 -326,-146 -326,-326 0,-180 146,-326 326,-326 32,0 64,5 94,14l109 0 0 -14 0 -244 0 -245 0 -202 0 -42 -122 0 0 -244zm-81 1140c90,0 162,73 162,163 0,90 -72,163 -162,163 -90,0 -163,-73 -163,-163 0,-90 73,-163 163,-163zm1140 0c90,0 163,73 163,163 0,90 -73,163 -163,163 -90,0 -163,-73 -163,-163 0,-90 73,-163 163,-163z"/>
  <path class="fil2 str0" d="M15882 7810l978 0 0 -244 -123 0 0 -43 0 -202 0 -244 0 -244 0 -14 110 0c30,9 61,14 94,14 180,0 326,-146 326,-326 0,-180 -146,-326 -326,-326l-1140 0c-180,0 -326,146 -326,326 0,180 146,326 326,326 32,0 64,-5 94,-14l109 0 0 14 0 244 0 244 0 202 0 43 -122 0 0 244zm-81 -1140c90,0 162,-73 162,-163 0,-90 -72,-163 -162,-163 -90,0 -163,73 -163,163 0,90 73,163 163,163zm1140 0c90,0 163,-73 163,-163 0,-90 -73,-163 -163,-163 -90,0 -163,73 -163,163 0,90 73,163 163,163z"/>
  <path class="fil2 str0" d="M17403 6147l978 0 0 -245 -122 0 0 -42 0 -202 0 -244 0 -245 0 -14 109 0c30,9 62,14 94,14 180,0 326,-146 326,-326 0,-180 -146,-326 -326,-326l-1140 0c-180,0 -326,146 -326,326 0,180 146,326 326,326 32,0 64,-5 94,-14l109 0 0 14 0 245 0 244 0 202 0 42 -122 0 0 245zm-81 -1141c90,0 163,-73 163,-163 0,-90 -73,-163 -163,-163 -90,0 -163,73 -163,163 0,90 73,163 163,163zm1140 0c90,0 163,-73 163,-163 0,-90 -73,-163 -163,-163 -90,0 -163,73 -163,163 0,90 73,163 163,163z"/>
  <path class="fil2 str0" d="M17403 6242l978 0 0 244 -122 0 0 42 0 202 0 245 0 244 0 14 109 0c30,-9 62,-14 94,-14 180,0 326,146 326,326 0,180 -146,326 -326,326l-1140 0c-180,0 -326,-146 -326,-326 0,-180 146,-326 326,-326 32,0 64,5 94,14l109 0 0 -14 0 -244 0 -245 0 -202 0 -42 -122 0 0 -244zm-81 1140c90,0 163,73 163,163 0,90 -73,163 -163,163 -90,0 -163,-73 -163,-163 0,-90 73,-163 163,-163zm1140 0c90,0 163,73 163,163 0,90 -73,163 -163,163 -90,0 -163,-73 -163,-163 0,-90 73,-163 163,-163z"/>
  <path class="fil3 str0" d="M12304 9946l407 0 0 0c0,14 1,28 3,41 -2,13 -3,27 -3,41 0,180 146,325 326,325 180,0 326,-145 326,-325 0,-14 -1,-28 -2,-41 1,-13 2,-27 2,-41l0 0 245 0 0 -244 -245 0 0 -326 245 0 0 -244 -42 -478 0 0c-11,-171 -152,-306 -325,-306 -173,0 -315,135 -325,306l0 0 -75 58c-56,-49 -130,-78 -211,-78 -180,0 -326,145 -326,325l0 173 0 244 163 0 29 0 52 0 0 38 0 288 -244 0 0 244zm733 245c90,0 163,-73 163,-163 0,-90 -73,-163 -163,-163 -90,0 -163,73 -163,163 0,90 73,163 163,163zm-407 -1069c90,0 163,-73 163,-163 0,-90 -73,-162 -163,-162 -90,0 -163,72 -163,162 0,90 73,163 163,163zm611 -285c90,0 163,-73 163,-163 0,-90 -73,-163 -163,-163 -90,0 -163,73 -163,163 0,90 73,163 163,163z"/>
  <path class="fil3 str0" d="M15248 9946l407 0 0 0c0,14 1,28 3,41 -2,13 -3,27 -3,41 0,180 146,325 326,325 180,0 326,-145 326,-325 0,-14 -1,-28 -3,-41 2,-13 3,-27 3,-41l0 0 244 0 0 -244 -244 0 0 -326 244 0 0 -244 -41 -478 0 0c-11,-171 -152,-306 -325,-306 -173,0 -315,135 -326,306l0 0 -74 58c-57,-49 -131,-78 -211,-78 -180,0 -326,145 -326,325l0 173 0 244 163 0 29 0 52 0 0 38 0 288 -244 0 0 244zm733 245c90,0 163,-73 163,-163 0,-90 -73,-163 -163,-163 -90,0 -163,73 -163,163 0,90 73,163 163,163zm-407 -1069c90,0 163,-73 163,-163 0,-90 -73,-162 -163,-162 -90,0 -163,72 -163,162 0,90 73,163 163,163zm611 -285c90,0 163,-73 163,-163 0,-90 -73,-163 -163,-163 -90,0 -163,73 -163,163 0,90 73,163 163,163z"/>
  <path class="fil3 str0" d="M13770 9946l407 0 0 0c0,14 1,28 3,41 -2,13 -3,27 -3,41 0,180 146,325 326,325 180,0 326,-145 326,-325 0,-14 -1,-28 -3,-41 2,-13 3,-27 3,-41l0 0 244 0 0 -244 -244 0 0 -326 244 0 0 -244 -41 -478 0 0c-11,-171 -152,-306 -325,-306 -173,0 -315,135 -325,306l-1 0 -74 58c-57,-49 -131,-78 -211,-78 -180,0 -326,145 -326,325l0 173 0 244 163 0 29 0 52 0 0 38 0 288 -244 0 0 244zm733 245c90,0 163,-73 163,-163 0,-90 -73,-163 -163,-163 -90,0 -163,73 -163,163 0,90 73,163 163,163zm-407 -1069c90,0 163,-73 163,-163 0,-90 -73,-162 -163,-162 -90,0 -163,72 -163,162 0,90 73,163 163,163zm611 -285c90,0 163,-73 163,-163 0,-90 -73,-163 -163,-163 -90,0 -163,73 -163,163 0,90 73,163 163,163z"/>
  <path class="fil3 str0" d="M16714 9946l407 0 0 0c0,14 1,28 2,41 -1,13 -2,27 -2,41 0,180 146,325 326,325 180,0 326,-145 326,-325 0,-14 -1,-28 -3,-41 2,-13 3,-27 3,-41l0 0 244 0 0 -244 -244 0 0 -326 244 0 0 -244 -41 -478 0 0c-11,-171 -152,-306 -326,-306 -173,0 -314,135 -325,306l0 0 -74 58c-57,-49 -131,-78 -212,-78 -180,0 -325,145 -325,325l0 173 0 244 163 0 28 0 53 0 0 38 0 288 -244 0 0 244zm733 245c90,0 163,-73 163,-163 0,-90 -73,-163 -163,-163 -90,0 -163,73 -163,163 0,90 73,163 163,163zm-408 -1069c90,0 163,-73 163,-163 0,-90 -73,-162 -163,-162 -90,0 -162,72 -162,162 0,90 72,163 162,163zm611 -285c90,0 163,-73 163,-163 0,-90 -73,-163 -163,-163 -90,0 -162,73 -162,163 0,90 72,163 162,163z"/>
  <path class="fil4 str0" d="M14731 11358c180,0 325,-146 325,-326 0,-180 -145,-326 -325,-326l-326 0 0 163 -245 0 0 -244 -1629 0 0 244 -245 0 0 326 245 0 0 245 1629 0 0 -245 245 0 0 163 326 0zm-1303 -203l326 0 0 -245 -326 0 0 245zm1303 40c90,0 163,-73 163,-163 0,-90 -73,-163 -163,-163 -90,0 -163,73 -163,163 0,90 73,163 163,163zm-1874 0c90,0 163,-73 163,-163 0,-90 -73,-163 -163,-163 -90,0 -163,73 -163,163 0,90 73,163 163,163z"/>
  <path class="fil4 str0" d="M14731 13256c180,0 325,-146 325,-326 0,-180 -145,-326 -325,-326l-326 0 0 163 -245 0 0 -245 -1629 0 0 245 -245 0 0 326 245 0 0 244 1629 0 0 -244 245 0 0 163 326 0zm-1303 -204l326 0 0 -245 -326 0 0 245zm1303 41c90,0 163,-73 163,-163 0,-90 -73,-163 -163,-163 -90,0 -163,73 -163,163 0,90 73,163 163,163zm-1874 0c90,0 163,-73 163,-163 0,-90 -73,-163 -163,-163 -90,0 -163,73 -163,163 0,90 73,163 163,163z"/>
  <path class="fil4 str0" d="M14731 12272c180,0 325,-146 325,-326 0,-180 -145,-326 -325,-326l-326 0 0 163 -245 0 0 -244 -1629 0 0 244 -245 0 0 326 245 0 0 245 1629 0 0 -245 245 0 0 163 326 0zm-1303 -203l326 0 0 -245 -326 0 0 245zm1303 40c90,0 163,-73 163,-163 0,-90 -73,-163 -163,-163 -90,0 -163,73 -163,163 0,90 73,163 163,163zm-1874 0c90,0 163,-73 163,-163 0,-90 -73,-163 -163,-163 -90,0 -163,73 -163,163 0,90 73,163 163,163z"/>
  <path class="fil4 str0" d="M14731 14170c180,0 325,-146 325,-326 0,-180 -145,-326 -325,-326l-326 0 0 163 -245 0 0 -245 -1629 0 0 245 -245 0 0 326 245 0 0 244 1629 0 0 -244 245 0 0 163 326 0zm-1303 -204l326 0 0 -245 -326 0 0 245zm1303 41c90,0 163,-73 163,-163 0,-90 -73,-163 -163,-163 -90,0 -163,73 -163,163 0,90 73,163 163,163zm-1874 0c90,0 163,-73 163,-163 0,-90 -73,-163 -163,-163 -90,0 -163,73 -163,163 0,90 73,163 163,163z"/>
  <path class="fil4 str0" d="M17649 11358c180,0 326,-146 326,-326 0,-180 -146,-326 -326,-326l-326 0 0 163 -245 0 0 -244 -1629 0 0 244 -244 0 0 326 244 0 0 245 1629 0 0 -245 245 0 0 163 326 0zm-1303 -203l326 0 0 -245 -326 0 0 245zm1303 40c90,0 163,-73 163,-163 0,-90 -73,-163 -163,-163 -90,0 -163,73 -163,163 0,90 73,163 163,163zm-1874 0c90,0 163,-73 163,-163 0,-90 -73,-163 -163,-163 -90,0 -163,73 -163,163 0,90 73,163 163,163z"/>
  <path class="fil4 str0" d="M17649 13256c180,0 326,-146 326,-326 0,-180 -146,-326 -326,-326l-326 0 0 163 -245 0 0 -245 -1629 0 0 245 -244 0 0 326 244 0 0 244 1629 0 0 -244 245 0 0 163 326 0zm-1303 -204l326 0 0 -245 -326 0 0 245zm1303 41c90,0 163,-73 163,-163 0,-90 -73,-163 -163,-163 -90,0 -163,73 -163,163 0,90 73,163 163,163zm-1874 0c90,0 163,-73 163,-163 0,-90 -73,-163 -163,-163 -90,0 -163,73 -163,163 0,90 73,163 163,163z"/>
  <path class="fil4 str0" d="M17649 12272c180,0 326,-146 326,-326 0,-180 -146,-326 -326,-326l-326 0 0 163 -245 0 0 -244 -1629 0 0 244 -244 0 0 326 244 0 0 245 1629 0 0 -245 245 0 0 163 326 0zm-1303 -203l326 0 0 -245 -326 0 0 245zm1303 40c90,0 163,-73 163,-163 0,-90 -73,-163 -163,-163 -90,0 -163,73 -163,163 0,90 73,163 163,163zm-1874 0c90,0 163,-73 163,-163 0,-90 -73,-163 -163,-163 -90,0 -163,73 -163,163 0,90 73,163 163,163z"/>
  <path class="fil4 str0" d="M17649 14170c180,0 326,-146 326,-326 0,-180 -146,-326 -326,-326l-326 0 0 163 -245 0 0 -245 -1629 0 0 245 -244 0 0 326 244 0 0 244 1629 0 0 -244 245 0 0 163 326 0zm-1303 -204l326 0 0 -245 -326 0 0 245zm1303 41c90,0 163,-73 163,-163 0,-90 -73,-163 -163,-163 -90,0 -163,73 -163,163 0,90 73,163 163,163zm-1874 0c90,0 163,-73 163,-163 0,-90 -73,-163 -163,-163 -90,0 -163,73 -163,163 0,90 73,163 163,163z"/>
  <path class="fil5 str0" d="M20525 2281l538 0 538 0 0 244 864 0 0 -244 814 0 0 244 865 0 0 0 0 -244 0 0 0 -326 0 -237 0 -65 0 -65 0 -41 0 -88 0 -238 0 -325 0 0 0 -245 0 0 -865 0 0 245 -814 0 0 -245 -864 0 0 245 -538 0 -538 0c-180,0 -326,145 -326,325 0,180 146,326 326,326l0 41 0 41c-180,0 -326,146 -326,326 0,180 146,326 326,326zm0 -897c90,0 162,-73 162,-163 0,-90 -72,-162 -162,-162 -90,0 -163,72 -163,162 0,90 73,163 163,163zm3277 0c90,0 163,-73 163,-163 0,-90 -73,-162 -163,-162 -90,0 -163,72 -163,162 0,90 73,163 163,163zm-1875 0c90,0 162,-73 162,-163 0,-90 -72,-162 -162,-162 -90,0 -163,72 -163,162 0,90 73,163 163,163zm-1402 408c90,0 162,73 162,163 0,90 -72,163 -162,163 -90,0 -163,-73 -163,-163 0,-90 73,-163 163,-163zm3277 0c90,0 163,73 163,163 0,90 -73,163 -163,163 -90,0 -163,-73 -163,-163 0,-90 73,-163 163,-163zm-1875 0c90,0 162,73 162,163 0,90 -72,163 -162,163 -90,0 -163,-73 -163,-163 0,-90 73,-163 163,-163z"/>
  <path class="fil5 str0" d="M20636 3460l244 0 0 -242 865 0 0 245 814 0 0 -245 864 0 0 763 0 174 0 161 0 776 -864 0 0 -244 -814 0 0 244 -865 0 0 -241 -244 0 0 -346 244 0 0 -189 0 -161 0 -174 0 -175 -244 0 0 -346zm570 899c90,0 163,73 163,163 0,90 -73,163 -163,163 -90,0 -163,-73 -163,-163 0,-90 73,-163 163,-163zm1876 0c90,0 163,73 163,163 0,90 -73,163 -163,163 -90,0 -163,-73 -163,-163 0,-90 73,-163 163,-163zm-1876 -407c90,0 163,-73 163,-163 0,-90 -73,-163 -163,-163 -90,0 -163,73 -163,163 0,90 73,163 163,163zm1876 0c90,0 163,-73 163,-163 0,-90 -73,-163 -163,-163 -90,0 -163,73 -163,163 0,90 73,163 163,163z"/>
  <path class="fil1 str0" d="M21972 6468l2363 0 0 -201 407 -407 520 0 0 1792 0 1793 -520 0 -407 -408 0 -200 -2363 0 0 -2369zm2964 2110c90,0 163,73 163,163 0,90 -73,163 -163,163 -90,0 -163,-73 -163,-163 0,-90 73,-163 163,-163zm0 -2180c90,0 163,73 163,163 0,90 -73,163 -163,163 -90,0 -163,-73 -163,-163 0,-90 73,-163 163,-163zm0 1091c90,0 163,73 163,163 0,90 -73,163 -163,163 -90,0 -163,-73 -163,-163 0,-90 73,-163 163,-163zm-1823 0c90,0 163,73 163,163 0,90 -73,163 -163,163 -90,0 -163,-73 -163,-163 0,-90 73,-163 163,-163zm-326 856l0 244 652 0 0 -244 -652 0zm0 -1630l0 245 652 0 0 -245 -652 0z"/>
  <path class="fil6 str0" d="M22286 10158c-180,0 -326,146 -326,326 0,180 146,326 326,326l163 0 0 611 1009 0 0 0 1059 0 244 0 0 0 489 0 0 -245 0 -1629 -489 0 -244 0 -815 0 -244 0 -1009 0 0 611 -163 0zm2475 1018l-244 0 0 -1385 244 0 0 1385 0 0zm-1303 -366l244 0 0 366 -244 0 0 -366zm0 -1019l244 0 0 367 -244 0 0 -367zm651 530c-90,0 -162,73 -162,163 0,90 72,163 162,163 90,0 163,-73 163,-163 0,-90 -73,-163 -163,-163zm-1823 0c-90,0 -163,73 -163,163 0,90 73,163 163,163 90,0 163,-73 163,-163 0,-90 -73,-163 -163,-163z"/>
  <path class="fil4 str0" d="M21488 5359l244 0 0 651 -244 0 0 82 -864 0 0 244 -815 0 0 -244 -864 0 0 -82 0 -651 0 -82 864 0 0 -244 815 0 0 244 864 0 0 82zm-815 163c90,0 163,72 163,162 0,90 -73,163 -163,163 -90,0 -163,-73 -163,-163 0,-90 73,-162 163,-162zm-913 0c90,0 163,72 163,162 0,90 -73,163 -163,163 -90,0 -163,-73 -163,-163 0,-90 73,-162 163,-162z"/>
  <path class="fil4 str0" d="M21513 6768l245 0 0 652 -245 0 0 81 -864 0 0 245 -815 0 0 -245 -864 0 0 -81 0 -652 0 -81 864 0 0 -245 815 0 0 245 864 0 0 81zm-814 163c90,0 162,73 162,163 0,90 -72,163 -162,163 -90,0 -163,-73 -163,-163 0,-90 73,-163 163,-163zm-914 0c90,0 163,73 163,163 0,90 -73,163 -163,163 -90,0 -163,-73 -163,-163 0,-90 73,-163 163,-163z"/>
  <path class="fil0 str0" d="M1087 17146l1 0 -162 -1194 455 -953 -6 -2c6,-20 11,-41 14,-63 23,-178 -103,-341 -282,-364 -156,-20 -301,74 -350,218l0 0 0 0c-7,20 -12,42 -14,64 -3,16 -3,33 -3,49l-27 175 -379 670c-12,16 -22,34 -30,52l0 0 0 0c-13,29 -22,60 -26,93 -6,46 -2,91 11,133l0 0 149 1173c3,159 122,295 284,316 179,22 342,-104 365,-282 4,-29 3,-58 0,-85zm-42 -2091c89,11 171,-52 182,-141 12,-90 -51,-171 -141,-183 -89,-11 -170,52 -182,141 -11,90 52,171 141,183zm-465 1039c90,11 171,-52 183,-141 11,-90 -52,-171 -141,-183 -89,-11 -171,52 -182,141 -12,89 51,171 140,183zm163 1257c89,11 171,-52 182,-141 12,-89 -51,-171 -141,-182 -89,-12 -171,51 -182,141 -11,89 52,170 141,182z"/>
  <path class="fil0 str0" d="M4203 17146l2 0 -162 -1194 454 -953 -6 -2c7,-20 12,-41 14,-63 23,-178 -103,-341 -282,-364 -156,-20 -301,74 -349,218l0 0 0 0c-7,20 -12,42 -15,64 -2,16 -3,33 -3,49l-26 175 -380 670c-12,16 -21,34 -30,52l0 0 0 0c-13,29 -22,60 -26,93 -6,46 -2,91 11,133l0 0 149 1173c4,159 123,295 285,316 178,22 341,-104 364,-282 4,-29 4,-58 0,-85zm-42 -2091c90,11 171,-52 183,-141 11,-90 -52,-171 -141,-183 -89,-11 -171,52 -183,141 -11,90 52,171 141,183zm-464 1039c89,11 171,-52 182,-141 12,-90 -52,-171 -141,-183 -89,-11 -171,52 -182,141 -12,89 52,171 141,183zm162 1257c90,11 171,-52 183,-141 11,-89 -52,-171 -141,-182 -90,-12 -171,51 -183,141 -11,89 52,170 141,182z"/>
  <path class="fil0 str0" d="M1849 17146l1 0 -161 -1194 454 -953 -6 -2c6,-20 11,-41 14,-63 23,-178 -103,-341 -282,-364 -156,-20 -301,74 -350,218l0 0 0 0c-7,20 -12,42 -14,64 -2,16 -3,33 -3,49l-27 175 -379 670c-12,16 -22,34 -30,52l0 0 0 0c-13,29 -22,60 -26,93 -6,46 -2,91 11,133l0 0 149 1173c4,159 122,295 284,316 179,22 342,-104 365,-282 4,-29 3,-58 0,-85zm-42 -2091c89,11 171,-52 183,-141 11,-90 -52,-171 -141,-183 -90,-11 -171,52 -183,141 -11,90 52,171 141,183zm-464 1039c89,11 170,-52 182,-141 11,-90 -52,-171 -141,-183 -89,-11 -171,52 -182,141 -12,89 51,171 141,183zm162 1257c89,11 171,-52 182,-141 12,-89 -51,-171 -141,-182 -89,-12 -170,51 -182,141 -11,89 52,170 141,182z"/>
  <path class="fil0 str0" d="M4965 17144l2 0 -162 -1194 454 -953 -6 -2c7,-20 12,-41 15,-63 23,-178 -104,-341 -282,-364 -157,-20 -301,74 -350,218l0 0 0 0c-7,20 -12,42 -15,64 -2,16 -3,33 -2,49l-27 175 -380 670c-11,16 -21,34 -29,52l0 0 0 0c-13,29 -22,60 -26,93 -6,46 -2,91 10,133l0 0 150 1173c3,159 122,295 284,316 179,22 342,-104 365,-282 3,-29 3,-58 -1,-85zm-41 -2091c89,11 171,-52 182,-141 12,-90 -51,-171 -141,-183 -89,-11 -171,52 -182,141 -11,90 52,171 141,183zm-465 1039c90,11 171,-52 183,-141 11,-90 -52,-171 -141,-183 -90,-11 -171,52 -183,141 -11,90 52,171 141,183zm163 1257c89,11 171,-52 182,-141 11,-89 -52,-171 -141,-182 -89,-12 -171,51 -182,141 -12,89 51,171 141,182z"/>
  <path class="fil0 str0" d="M2659 17146l2 0 -162 -1194 454 -953 -6 -2c7,-20 12,-41 15,-63 23,-178 -104,-341 -282,-364 -157,-20 -301,74 -350,218l0 0 0 0c-7,20 -12,42 -15,64 -2,16 -3,33 -2,49l-27 175 -380 670c-11,16 -21,34 -29,52l-1 0 0 0c-12,29 -21,60 -25,93 -6,46 -2,91 10,133l0 0 149 1173c4,159 123,295 285,316 178,22 342,-104 365,-282 3,-29 3,-58 -1,-85zm-41 -2091c89,11 171,-52 182,-141 11,-90 -52,-171 -141,-183 -89,-11 -171,52 -182,141 -12,90 51,171 141,183zm-465 1039c89,11 171,-52 182,-141 12,-90 -51,-171 -141,-183 -89,-11 -170,52 -182,141 -11,89 52,171 141,183zm163 1257c89,11 170,-52 182,-141 11,-89 -52,-171 -141,-182 -89,-12 -171,51 -182,141 -12,89 51,170 141,182z"/>
  <path class="fil0 str0" d="M5761 17146l2 0 -162 -1194 454 -953 -6 -2c7,-20 12,-41 15,-63 23,-178 -104,-341 -282,-364 -156,-20 -301,74 -350,218l0 0 0 0c-7,20 -12,42 -15,64 -2,16 -3,33 -2,49l-27 175 -380 670c-11,16 -21,34 -29,52l0 0 0 0c-13,29 -22,60 -26,93 -6,46 -2,91 10,133l0 0 150 1173c3,159 122,295 284,316 179,22 342,-104 365,-282 3,-29 3,-58 -1,-85zm-41 -2091c89,11 171,-52 182,-141 12,-90 -51,-171 -141,-183 -89,-11 -171,52 -182,141 -11,90 52,171 141,183zm-465 1039c90,11 171,-52 183,-141 11,-90 -52,-171 -141,-183 -90,-11 -171,52 -183,141 -11,89 52,171 141,183zm163 1257c89,11 171,-52 182,-141 11,-89 -52,-171 -141,-182 -89,-12 -171,51 -182,141 -12,89 51,170 141,182z"/>
  <path class="fil0 str0" d="M3435 17146l2 0 -162 -1194 454 -953 -6 -2c7,-20 12,-41 15,-63 23,-178 -104,-341 -282,-364 -157,-20 -301,74 -350,218l0 0 0 0c-7,20 -12,42 -15,64 -2,16 -3,33 -2,49l-27 175 -380 670c-11,16 -21,34 -29,52l-1 0 0 0c-12,29 -21,60 -25,93 -6,46 -2,91 10,133l0 0 149 1173c4,159 123,295 285,316 178,22 342,-104 365,-282 3,-29 3,-58 -1,-85zm-41 -2091c89,11 171,-52 182,-141 11,-90 -52,-171 -141,-183 -89,-11 -171,52 -182,141 -12,90 51,171 141,183zm-465 1039c89,11 171,-52 182,-141 12,-90 -51,-171 -140,-183 -90,-11 -171,52 -183,141 -11,89 52,171 141,183zm163 1257c89,11 170,-52 182,-141 11,-89 -52,-171 -141,-182 -89,-12 -171,51 -182,141 -12,89 51,170 141,182z"/>
  <path class="fil0 str0" d="M6539 17146l2 0 -162 -1194 454 -953 -6 -2c7,-20 12,-41 15,-63 23,-178 -104,-341 -282,-364 -157,-20 -301,74 -350,218l0 0 0 0c-7,20 -12,42 -15,64 -2,16 -3,33 -2,49l-27 175 -380 670c-11,16 -21,34 -29,52l0 0 0 0c-13,29 -22,60 -26,93 -6,46 -2,91 10,133l0 0 149 1173c4,159 123,295 285,316 178,22 342,-104 365,-282 3,-29 3,-58 -1,-85zm-41 -2091c89,11 171,-52 182,-141 12,-90 -52,-171 -141,-183 -89,-11 -171,52 -182,141 -12,90 52,171 141,183zm-465 1039c89,11 171,-52 182,-141 12,-90 -51,-171 -140,-183 -90,-11 -171,52 -183,141 -11,89 52,171 141,183zm163 1257c89,11 171,-52 182,-141 11,-89 -52,-171 -141,-182 -89,-12 -171,51 -182,141 -12,89 51,170 141,182z"/>
  <path class="fil5 str0" d="M19411 9063l245 0 40 0 0 244 407 0 0 1737 -407 0 0 244 -40 0 -245 0 -41 0 0 -244 -406 0 0 -463 373 0c12,1 23,2 34,2l0 0c224,0 408,-183 408,-408l0 0c0,-224 -184,-407 -408,-407l0 0c-11,0 -22,1 -34,2l-373 0 0 -463 406 0 0 -244 41 0z"/>
  <path class="fil5 str0" d="M20818 11310l244 0 41 0 0 -245 406 0 0 -1736 -406 0 0 -245 -41 0 -244 0 -41 0 0 245 -407 0 0 462 374 0c11,-1 22,-1 34,-1l0 0c224,0 407,183 407,407l0 0c0,224 -183,407 -407,407l0 0c-12,0 -23,0 -34,-1l-374 0 0 462 407 0 0 245 41 0z"/>
  <path class="fil6 str0" d="M27838 12679l1352 0c58,54 136,87 222,87 59,0 115,-16 162,-43l0 -283c0,-90 -72,-163 -162,-163 -90,0 -163,73 -163,163 0,90 73,163 163,163 90,0 162,-73 162,-163l0 -282 0 -25 0 -24 245 0 0 -408 -245 0 0 -326 0 -325 245 0 0 -408 -245 0 0 -25 0 -24 0 -283c0,-90 -72,-163 -162,-163 -90,0 -163,73 -163,163 0,90 73,163 163,163 90,0 162,-73 162,-163l0 -282c-47,-28 -103,-43 -162,-43 -86,0 -164,33 -222,87l-1352 0 0 570 -244 0 -734 0 0 -6 0 -564 0 -489 -1413 0 0 1059 0 733 0 734 0 1059 1413 0 0 -489 0 -564 0 -6 734 0 244 0 0 570zm-2065 -2689c90,0 163,73 163,163 0,90 -73,163 -163,163 -90,0 -163,-73 -163,-163 0,-90 73,-163 163,-163zm395 326l354 0 54 0 0 245 -54 0 -354 0 0 -245zm-395 2444c90,0 163,-73 163,-163 0,-90 -73,-162 -163,-162 -90,0 -163,72 -163,162 0,90 73,163 163,163zm395 -325l354 0 54 0 0 -245 -54 0 -354 0 0 245z"/>
  <path class="fil5 str0" d="M24444 2760l0 -489 244 0 0 -407 0 -326 0 -326 0 -408 -244 0 0 -488 0 -82 3829 0 0 82 0 488 245 0 0 408 -245 0 0 326 0 326 245 0 0 407 -245 0 0 489 0 81 -3829 0 0 -81zm3494 -320c90,0 163,-73 163,-163 0,-90 -73,-163 -163,-163 -90,0 -163,73 -163,163 0,90 73,163 163,163zm0 -1804c90,0 163,73 163,163 0,90 -73,163 -163,163 -90,0 -163,-73 -163,-163 0,-90 73,-163 163,-163zm-2770 1804c90,0 163,-73 163,-163 0,-90 -73,-163 -163,-163 -90,0 -163,73 -163,163 0,90 73,163 163,163zm0 -1804c90,0 163,73 163,163 0,90 -73,163 -163,163 -90,0 -163,-73 -163,-163 0,-90 73,-163 163,-163zm2770 739c90,0 163,73 163,163 0,90 -73,163 -163,163 -90,0 -163,-73 -163,-163 0,-90 73,-163 163,-163zm-2770 0c90,0 163,73 163,163 0,90 -73,163 -163,163 -90,0 -163,-73 -163,-163 0,-90 73,-163 163,-163zm335 163l0 977 1955 0 0 -977 0 -978 -1955 0 0 978z"/>
  <path class="fil3 str0" d="M13905 15974c180,0 326,-145 326,-325l0 -85 216 0 0 -244 -245 0 0 -207 0 -119 120 0 0 0 125 0 0 -245 -92 0c-36,-140 -164,-244 -315,-244 -152,0 -280,104 -316,244l-779 0c-37,-140 -164,-244 -316,-244 -152,0 -279,104 -316,244l-91 0 0 245 125 0 0 0 119 0 0 119 0 207 -244 0 0 244 217 0 0 85c0,180 146,325 326,325 180,0 326,-145 326,-325l488 0c0,180 146,325 326,325zm-1276 -980c90,0 163,-73 163,-163 0,-90 -73,-163 -163,-163 -90,0 -163,73 -163,163 0,90 73,163 163,163zm1411 0c90,0 162,-73 162,-163 0,-90 -72,-163 -162,-163 -90,0 -163,73 -163,163 0,90 73,163 163,163zm-1275 817c90,0 163,-72 163,-162 0,-90 -73,-163 -163,-163 -90,0 -163,73 -163,163 0,90 73,162 163,162zm1140 0c-90,0 -163,-72 -163,-162 0,-90 73,-163 163,-163 90,0 163,73 163,163 0,90 -73,162 -163,162z"/>
  <path class="fil3 str0" d="M13905 17636c180,0 326,-146 326,-326l0 -84 216 0 0 -245 -245 0 0 -206 0 -120 120 0 0 0 125 0 0 -244 -92 0c-36,-141 -164,-244 -315,-244 -152,0 -280,103 -316,244l-779 0c-37,-141 -164,-244 -316,-244 -152,0 -279,103 -316,244l-91 0 0 244 125 0 0 0 119 0 0 120 0 206 -244 0 0 245 217 0 0 84c0,180 146,326 326,326 180,0 326,-146 326,-326l488 0c0,180 146,326 326,326zm-1276 -981c90,0 163,-73 163,-162 0,-90 -73,-163 -163,-163 -90,0 -163,73 -163,163 0,89 73,162 163,162zm1411 0c90,0 162,-73 162,-162 0,-90 -72,-163 -162,-163 -90,0 -163,73 -163,163 0,89 73,162 163,162zm-1275 818c90,0 163,-73 163,-163 0,-90 -73,-163 -163,-163 -90,0 -163,73 -163,163 0,90 73,163 163,163zm1140 0c-90,0 -163,-73 -163,-163 0,-90 73,-163 163,-163 90,0 163,73 163,163 0,90 -73,163 -163,163z"/>
  <path class="fil3 str0" d="M16302 15974c180,0 326,-145 326,-325l0 -85 216 0 0 -244 -245 0 0 -207 0 -119 120 0 0 0 125 0 0 -245 -92 0c-36,-140 -164,-244 -316,-244 -151,0 -279,104 -315,244l-779 0c-37,-140 -164,-244 -316,-244 -152,0 -279,104 -316,244l-91 0 0 245 125 0 0 0 119 0 0 119 0 207 -244 0 0 244 217 0 0 85c0,180 146,325 326,325 180,0 326,-145 326,-325l488 0c0,180 146,325 326,325zm-1276 -980c90,0 163,-73 163,-163 0,-90 -73,-163 -163,-163 -90,0 -163,73 -163,163 0,90 73,163 163,163zm1410 0c90,0 163,-73 163,-163 0,-90 -73,-163 -163,-163 -90,0 -162,73 -162,163 0,90 72,163 162,163zm-1274 817c90,0 163,-72 163,-162 0,-90 -73,-163 -163,-163 -90,0 -163,73 -163,163 0,90 73,162 163,162zm1140 0c-90,0 -163,-72 -163,-162 0,-90 73,-163 163,-163 90,0 163,73 163,163 0,90 -73,162 -163,162z"/>
  <path class="fil3 str0" d="M16302 17636c180,0 326,-146 326,-326l0 -84 216 0 0 -245 -245 0 0 -206 0 -120 120 0 0 0 125 0 0 -244 -92 0c-36,-141 -164,-244 -316,-244 -151,0 -279,103 -315,244l-779 0c-37,-141 -164,-244 -316,-244 -152,0 -279,103 -316,244l-91 0 0 244 125 0 0 0 119 0 0 120 0 206 -244 0 0 245 217 0 0 84c0,180 146,326 326,326 180,0 326,-146 326,-326l488 0c0,180 146,326 326,326zm-1276 -981c90,0 163,-73 163,-162 0,-90 -73,-163 -163,-163 -90,0 -163,73 -163,163 0,89 73,162 163,162zm1410 0c90,0 163,-73 163,-162 0,-90 -73,-163 -163,-163 -90,0 -162,73 -162,163 0,89 72,162 162,162zm-1274 818c90,0 163,-73 163,-163 0,-90 -73,-163 -163,-163 -90,0 -163,73 -163,163 0,90 73,163 163,163zm1140 0c-90,0 -163,-73 -163,-163 0,-90 73,-163 163,-163 90,0 163,73 163,163 0,90 -73,163 -163,163z"/>
  <path class="fil5 str0" d="M24444 4976l244 0 0 -408 -244 0 0 408zm-354 -533c90,0 163,73 163,163 0,90 -73,163 -163,163 -90,0 -163,-73 -163,-163 0,-90 73,-163 163,-163zm0 -733c90,0 163,73 163,163 0,90 -73,163 -163,163 -90,0 -163,-73 -163,-163 0,-90 73,-163 163,-163zm0 1222c-180,0 -326,-146 -326,-326 0,-180 146,-326 326,-326l0 -81c-180,0 -326,-146 -326,-326 0,-180 146,-326 326,-326l0 -608 354 0 3829 0 0 81 0 489 245 0 0 408 -245 0 0 326 0 325 245 0 0 408 -245 0 0 489 0 81 -3829 0 -354 0 0 -614zm354 -1015l244 0 0 -408 -244 0 0 408zm3494 1228c90,0 163,-73 163,-163 0,-90 -73,-163 -163,-163 -90,0 -163,73 -163,163 0,90 73,163 163,163zm0 -1805c90,0 163,73 163,163 0,90 -73,163 -163,163 -90,0 -163,-73 -163,-163 0,-90 73,-163 163,-163zm-2770 1805c90,0 163,-73 163,-163 0,-90 -73,-163 -163,-163 -90,0 -163,73 -163,163 0,90 73,163 163,163zm0 -1805c90,0 163,73 163,163 0,90 -73,163 -163,163 -90,0 -163,-73 -163,-163 0,-90 73,-163 163,-163zm2770 740c90,0 163,73 163,163 0,90 -73,162 -163,162 -90,0 -163,-72 -163,-162 0,-90 73,-163 163,-163zm-2770 0c90,0 163,73 163,163 0,90 -73,162 -163,162 -90,0 -163,-72 -163,-162 0,-90 73,-163 163,-163zm335 163l0 977 1955 0 0 -977 0 -978 -1955 0 0 978z"/>
  <path class="fil7 str0" d="M4390 312l815 0c90,0 163,73 163,163l0 122c480,218 815,701 815,1263 0,561 -335,1045 -815,1262l0 123c0,89 -73,163 -163,163l-815 0c-89,0 -163,-74 -163,-163l0 -123c-480,-217 -814,-701 -814,-1262 0,-562 334,-1045 814,-1263l0 -122c0,-90 74,-163 163,-163zm41 240l733 0 0 314c404,149 693,538 693,994 0,456 -289,845 -693,994l0 313 -733 0 0 -313c-404,-149 -693,-538 -693,-994 0,-456 289,-845 693,-994l0 -314z"/>
  <path class="fil7 str0" d="M4390 3933l815 0c90,0 163,74 163,163l0 123c480,217 815,701 815,1262 0,562 -335,1045 -815,1263l0 122c0,90 -73,163 -163,163l-815 0c-89,0 -163,-73 -163,-163l0 -122c-480,-218 -814,-701 -814,-1263 0,-561 334,-1045 814,-1262l0 -123c0,-89 74,-163 163,-163zm41 241l733 0 0 313c404,149 693,538 693,994 0,456 -289,845 -693,994l0 314 -733 0 0 -314c-404,-149 -693,-538 -693,-994 0,-456 289,-845 693,-994l0 -313z"/>
  <path class="fil7 str0" d="M4390 7463l815 0c90,0 163,73 163,163l0 122c480,218 815,701 815,1263 0,562 -335,1045 -815,1262l0 123c0,90 -73,163 -163,163l-815 0c-89,0 -163,-73 -163,-163l0 -123c-480,-217 -814,-700 -814,-1262 0,-562 334,-1045 814,-1263l0 -122c0,-90 74,-163 163,-163zm41 240l733 0 0 314c404,149 693,538 693,994 0,456 -289,845 -693,994l0 314 -733 0 0 -314c-404,-149 -693,-538 -693,-994 0,-456 289,-845 693,-994l0 -314z"/>
  <path class="fil7 str0" d="M4390 10912l815 0c90,0 163,73 163,163l0 122c480,218 815,701 815,1263 0,562 -335,1045 -815,1262l0 123c0,90 -73,163 -163,163l-815 0c-89,0 -163,-73 -163,-163l0 -123c-480,-217 -814,-700 -814,-1262 0,-562 334,-1045 814,-1263l0 -122c0,-90 74,-163 163,-163zm41 240l733 0 0 314c404,149 693,538 693,994 0,456 -289,845 -693,994l0 314 -733 0 0 -314c-404,-149 -693,-538 -693,-994 0,-456 289,-845 693,-994l0 -314z"/>
  <path class="fil7 str0" d="M7322 312l815 0c89,0 162,73 162,163l0 122c481,218 815,701 815,1263 0,561 -334,1045 -815,1262l0 123c0,89 -73,163 -162,163l-815 0c-90,0 -163,-74 -163,-163l0 -123c-481,-217 -815,-701 -815,-1262 0,-562 334,-1045 815,-1263l0 -122c0,-90 73,-163 163,-163zm41 240l733 0 0 314c404,149 692,538 692,994 0,456 -288,845 -692,994l0 313 -733 0 0 -313c-405,-149 -693,-538 -693,-994 0,-456 288,-845 693,-994l0 -314z"/>
  <path class="fil7 str0" d="M7322 3933l815 0c89,0 162,74 162,163l0 123c481,217 815,701 815,1262 0,562 -334,1045 -815,1263l0 122c0,90 -73,163 -162,163l-815 0c-90,0 -163,-73 -163,-163l0 -122c-481,-218 -815,-701 -815,-1263 0,-561 334,-1045 815,-1262l0 -123c0,-89 73,-163 163,-163zm41 241l733 0 0 313c404,149 692,538 692,994 0,456 -288,845 -692,994l0 314 -733 0 0 -314c-405,-149 -693,-538 -693,-994 0,-456 288,-845 693,-994l0 -313z"/>
  <path class="fil7 str0" d="M7322 7463l815 0c89,0 162,73 162,163l0 122c481,218 815,701 815,1263 0,562 -334,1045 -815,1262l0 123c0,90 -73,163 -162,163l-815 0c-90,0 -163,-73 -163,-163l0 -123c-481,-217 -815,-700 -815,-1262 0,-562 334,-1045 815,-1263l0 -122c0,-90 73,-163 163,-163zm41 240l733 0 0 314c404,149 692,538 692,994 0,456 -288,845 -692,994l0 314 -733 0 0 -314c-405,-149 -693,-538 -693,-994 0,-456 288,-845 693,-994l0 -314z"/>
  <path class="fil7 str0" d="M7322 10912l815 0c89,0 162,73 162,163l0 122c481,218 815,701 815,1263 0,562 -334,1045 -815,1262l0 123c0,90 -73,163 -162,163l-815 0c-90,0 -163,-73 -163,-163l0 -123c-481,-217 -815,-700 -815,-1262 0,-562 334,-1045 815,-1263l0 -122c0,-90 73,-163 163,-163zm41 240l733 0 0 314c404,149 692,538 692,994 0,456 -288,845 -692,994l0 314 -733 0 0 -314c-405,-149 -693,-538 -693,-994 0,-456 288,-845 693,-994l0 -314z"/>
  <path class="fil7 str0" d="M10307 312l815 0c90,0 163,73 163,163l0 122c480,218 815,701 815,1263 0,561 -335,1045 -815,1262l0 123c0,89 -73,163 -163,163l-815 0c-89,0 -163,-74 -163,-163l0 -123c-480,-217 -814,-701 -814,-1262 0,-562 334,-1045 814,-1263l0 -122c0,-90 74,-163 163,-163zm41 240l733 0 0 314c405,149 693,538 693,994 0,456 -288,845 -693,994l0 313 -733 0 0 -313c-404,-149 -692,-538 -692,-994 0,-456 288,-845 692,-994l0 -314z"/>
  <path class="fil7 str0" d="M10307 3933l815 0c90,0 163,74 163,163l0 123c480,217 815,701 815,1262 0,562 -335,1045 -815,1263l0 122c0,90 -73,163 -163,163l-815 0c-89,0 -163,-73 -163,-163l0 -122c-480,-218 -814,-701 -814,-1263 0,-561 334,-1045 814,-1262l0 -123c0,-89 74,-163 163,-163zm41 241l733 0 0 313c405,149 693,538 693,994 0,456 -288,845 -693,994l0 314 -733 0 0 -314c-404,-149 -692,-538 -692,-994 0,-456 288,-845 692,-994l0 -313z"/>
  <path class="fil7 str0" d="M10307 7463l815 0c90,0 163,73 163,163l0 122c480,218 815,701 815,1263 0,562 -335,1045 -815,1262l0 123c0,90 -73,163 -163,163l-815 0c-89,0 -163,-73 -163,-163l0 -123c-480,-217 -814,-700 -814,-1262 0,-562 334,-1045 814,-1263l0 -122c0,-90 74,-163 163,-163zm41 240l733 0 0 314c405,149 693,538 693,994 0,456 -288,845 -693,994l0 314 -733 0 0 -314c-404,-149 -692,-538 -692,-994 0,-456 288,-845 692,-994l0 -314z"/>
  <path class="fil7 str0" d="M10307 10912l815 0c90,0 163,73 163,163l0 122c480,218 815,701 815,1263 0,562 -335,1045 -815,1262l0 123c0,90 -73,163 -163,163l-815 0c-89,0 -163,-73 -163,-163l0 -123c-480,-217 -814,-700 -814,-1262 0,-562 334,-1045 814,-1263l0 -122c0,-90 74,-163 163,-163zm41 240l733 0 0 314c405,149 693,538 693,994 0,456 -288,845 -693,994l0 314 -733 0 0 -314c-404,-149 -692,-538 -692,-994 0,-456 288,-845 692,-994l0 -314z"/>
  <path class="fil8 str0" d="M1638 1208c360,0 651,292 651,652 0,360 -291,652 -651,652 -360,0 -652,-292 -652,-652 0,-360 292,-652 652,-652zm0 244c225,0 407,183 407,408 0,225 -182,407 -407,407 -225,0 -408,-182 -408,-407 0,-225 183,-408 408,-408z"/>
  <path class="fil8 str0" d="M4798 1208c360,0 651,292 651,652 0,360 -291,652 -651,652 -360,0 -652,-292 -652,-652 0,-360 292,-652 652,-652zm0 244c225,0 407,183 407,408 0,225 -182,407 -407,407 -225,0 -408,-182 -408,-407 0,-225 183,-408 408,-408z"/>
  <path class="fil8 str0" d="M7729 1208c360,0 652,292 652,652 0,360 -292,652 -652,652 -360,0 -652,-292 -652,-652 0,-360 292,-652 652,-652zm0 244c225,0 408,183 408,408 0,225 -183,407 -408,407 -225,0 -407,-182 -407,-407 0,-225 182,-408 407,-408z"/>
  <path class="fil8 str0" d="M10715 1208c360,0 651,292 651,652 0,360 -291,652 -651,652 -360,0 -652,-292 -652,-652 0,-360 292,-652 652,-652zm0 244c225,0 407,183 407,408 0,225 -182,407 -407,407 -225,0 -408,-182 -408,-407 0,-225 183,-408 408,-408z"/>
  <path class="fil8 str0" d="M1638 4829c360,0 651,292 651,652 0,360 -291,652 -651,652 -360,0 -652,-292 -652,-652 0,-360 292,-652 652,-652zm0 245c225,0 407,182 407,407 0,225 -182,408 -407,408 -225,0 -408,-183 -408,-408 0,-225 183,-407 408,-407z"/>
  <path class="fil8 str0" d="M4798 4829c360,0 651,292 651,652 0,360 -291,652 -651,652 -360,0 -652,-292 -652,-652 0,-360 292,-652 652,-652zm0 245c225,0 407,182 407,407 0,225 -182,408 -407,408 -225,0 -408,-183 -408,-408 0,-225 183,-407 408,-407z"/>
  <path class="fil8 str0" d="M7729 4829c360,0 652,292 652,652 0,360 -292,652 -652,652 -360,0 -652,-292 -652,-652 0,-360 292,-652 652,-652zm0 245c225,0 408,182 408,407 0,225 -183,408 -408,408 -225,0 -407,-183 -407,-408 0,-225 182,-407 407,-407z"/>
  <path class="fil8 str0" d="M10715 4829c360,0 651,292 651,652 0,360 -291,652 -651,652 -360,0 -652,-292 -652,-652 0,-360 292,-652 652,-652zm0 245c225,0 407,182 407,407 0,225 -182,408 -407,408 -225,0 -408,-183 -408,-408 0,-225 183,-407 408,-407z"/>
  <path class="fil8 str0" d="M1638 8359c360,0 651,292 651,652 0,360 -291,652 -651,652 -360,0 -652,-292 -652,-652 0,-360 292,-652 652,-652zm0 245c225,0 407,182 407,407 0,225 -182,407 -407,407 -225,0 -408,-182 -408,-407 0,-225 183,-407 408,-407z"/>
  <path class="fil8 str0" d="M4798 8359c360,0 651,292 651,652 0,360 -291,652 -651,652 -360,0 -652,-292 -652,-652 0,-360 292,-652 652,-652zm0 245c225,0 407,182 407,407 0,225 -182,407 -407,407 -225,0 -408,-182 -408,-407 0,-225 183,-407 408,-407z"/>
  <path class="fil8 str0" d="M7729 8359c360,0 652,292 652,652 0,360 -292,652 -652,652 -360,0 -652,-292 -652,-652 0,-360 292,-652 652,-652zm0 245c225,0 408,182 408,407 0,225 -183,407 -408,407 -225,0 -407,-182 -407,-407 0,-225 182,-407 407,-407z"/>
  <path class="fil8 str0" d="M10715 8359c360,0 651,292 651,652 0,360 -291,652 -651,652 -360,0 -652,-292 -652,-652 0,-360 292,-652 652,-652zm0 245c225,0 407,182 407,407 0,225 -182,407 -407,407 -225,0 -408,-182 -408,-407 0,-225 183,-407 408,-407z"/>
  <path class="fil8 str0" d="M1638 11808c360,0 651,292 651,652 0,360 -291,652 -651,652 -360,0 -652,-292 -652,-652 0,-360 292,-652 652,-652zm0 245c225,0 407,182 407,407 0,225 -182,407 -407,407 -225,0 -408,-182 -408,-407 0,-225 183,-407 408,-407z"/>
  <path class="fil8 str0" d="M4798 11808c360,0 651,292 651,652 0,360 -291,652 -651,652 -360,0 -652,-292 -652,-652 0,-360 292,-652 652,-652zm0 245c225,0 407,182 407,407 0,225 -182,407 -407,407 -225,0 -408,-182 -408,-407 0,-225 183,-407 408,-407z"/>
  <path class="fil8 str0" d="M7729 11808c360,0 652,292 652,652 0,360 -292,652 -652,652 -360,0 -652,-292 -652,-652 0,-360 292,-652 652,-652zm0 245c225,0 408,182 408,407 0,225 -183,407 -408,407 -225,0 -407,-182 -407,-407 0,-225 182,-407 407,-407z"/>
  <path class="fil8 str0" d="M10715 11808c360,0 651,292 651,652 0,360 -291,652 -651,652 -360,0 -652,-292 -652,-652 0,-360 292,-652 652,-652zm0 245c225,0 407,182 407,407 0,225 -182,407 -407,407 -225,0 -408,-182 -408,-407 0,-225 183,-407 408,-407z"/>
  <path class="fil7 str0" d="M1638 230c899,0 1629,730 1629,1630 0,900 -730,1629 -1629,1629 -900,0 -1630,-729 -1630,-1629 0,-900 730,-1630 1630,-1630zm488 978c198,149 326,385 326,652 0,266 -128,503 -326,652l0 659 -977 0 0 -659c-198,-149 -326,-386 -326,-652 0,-267 128,-503 326,-652l0 -652 977 0 0 652z"/>
  <path class="fil7 str0" d="M1638 3852c899,0 1629,729 1629,1629 0,900 -730,1630 -1629,1630 -900,0 -1630,-730 -1630,-1630 0,-900 730,-1629 1630,-1629zm488 977c198,149 326,386 326,652 0,267 -128,503 -326,652l0 660 -977 0 0 -660c-198,-149 -326,-385 -326,-652 0,-266 128,-503 326,-652l0 -651 977 0 0 651z"/>
  <path class="fil7 str0" d="M1638 7382c899,0 1629,729 1629,1629 0,900 -730,1629 -1629,1629 -900,0 -1630,-729 -1630,-1629 0,-900 730,-1629 1630,-1629zm488 977c198,149 326,385 326,652 0,267 -128,503 -326,652l0 660 -977 0 0 -660c-198,-149 -326,-385 -326,-652 0,-267 128,-503 326,-652l0 -652 977 0 0 652z"/>
  <path class="fil7 str0" d="M1638 10830c899,0 1629,730 1629,1630 0,900 -730,1629 -1629,1629 -900,0 -1630,-729 -1630,-1629 0,-900 730,-1630 1630,-1630zm488 978c198,149 326,385 326,652 0,266 -128,503 -326,652l0 660 -977 0 0 -660c-198,-149 -326,-386 -326,-652 0,-267 128,-503 326,-652l0 -652 977 0 0 652z"/>
  <path class="fil9 str0" d="M30445 3436c61,-45 101,-117 101,-199 0,-126 -95,-230 -218,-243l-768 -161c-18,-4 -37,-6 -56,-6 -135,0 -244,109 -244,244 0,119 85,218 197,240l499 105 0 2833 0 2834 -499 105c-112,22 -197,121 -197,240 0,135 109,244 244,244 19,0 38,-2 56,-6l768 -161c123,-13 218,-117 218,-243 0,-82 -40,-154 -101,-199l0 -2814 0 -2813zm-941 6114c68,0 123,-54 123,-122 0,-67 -55,-122 -123,-122 -67,0 -122,55 -122,122 0,68 55,122 122,122zm697 -1630c67,0 122,54 122,122 0,67 -55,122 -122,122 -68,0 -123,-55 -123,-122 0,-68 55,-122 123,-122zm-697 -4971c68,0 123,54 123,122 0,67 -55,122 -123,122 -67,0 -122,-55 -122,-122 0,-68 55,-122 122,-122zm697 1630c67,0 122,-54 122,-122 0,-67 -55,-122 -122,-122 -68,0 -123,55 -123,122 0,68 55,122 123,122z"/>
  <path class="fil10" d="M31005 10625c61,-45 101,-117 101,-198 0,-127 -96,-230 -218,-243l-769 -162c-17,-4 -36,-6 -55,-6 -135,0 -244,109 -244,244 0,119 84,218 197,240l499 105 0 2834 0 2834 -499 104c-113,22 -197,121 -197,240 0,135 109,245 244,245 19,0 38,-2 55,-7l769 -161c122,-13 218,-117 218,-243 0,-82 -40,-154 -101,-198l0 -2814 0 -2814zm-941 6114c68,0 122,-54 122,-122 0,-67 -54,-122 -122,-122 -67,0 -122,55 -122,122 0,68 55,122 122,122zm696 -1630c68,0 122,55 122,122 0,68 -54,122 -122,122 -67,0 -122,-54 -122,-122 0,-67 55,-122 122,-122zm-696 -4971c68,0 122,55 122,122 0,68 -54,122 -122,122 -67,0 -122,-54 -122,-122 0,-67 55,-122 122,-122zm696 1631c68,0 122,-55 122,-123 0,-67 -54,-122 -122,-122 -67,0 -122,55 -122,122 0,68 55,123 122,123z"/>
  <path class="fil1 str0" d="M35281 13543l0 693 244 0 0 1874 -244 0 0 692 -1467 0 0 -692 -244 0 0 -1874 244 0 0 -693 1467 0zm-815 2730c0,-45 37,-82 82,-82 45,0 81,37 81,82 0,45 -36,81 -81,81 -45,0 -82,-36 -82,-81zm0 -2200c0,-45 37,-81 82,-81 45,0 81,36 81,81 0,45 -36,81 -81,81 -45,0 -82,-36 -82,-81zm571 163l0 1874 -978 0 0 -1874 978 0z"/>
  <path class="fil1 str0" d="M33190 13543l0 693 244 0 0 1874 -244 0 0 692 -1466 0 0 -692 -245 0 0 -1874 245 0 0 -693 1466 0zm-815 2730c0,-45 37,-82 82,-82 45,0 81,37 81,82 0,45 -36,81 -81,81 -45,0 -82,-36 -82,-81zm0 -2200c0,-45 37,-81 82,-81 45,0 81,36 81,81 0,45 -36,81 -81,81 -45,0 -82,-36 -82,-81zm571 163l0 1874 -978 0 0 -1874 978 0z"/>
  <path class="fil11 str0" d="M30594 9703l0 -7984 1711 -1711 652 0 0 326 244 0 0 -326 1629 0 0 326 245 0 0 -326 652 0 1710 1711 0 7984 -1629 1630 0 1711 -407 407 -693 0 0 -326 -1385 0 0 326 -692 0 -408 -407 0 -1711 -1629 -1630zm3863 -2049l0 0c0,90 73,163 163,163l489 0c89,0 163,-73 163,-163l0 0c0,-89 -74,-163 -163,-163l-489 0c-90,0 -163,74 -163,163zm-1629 0l0 0c0,90 73,163 163,163l488 0c90,0 163,-73 163,-163l0 0c0,-89 -73,-163 -163,-163l-488 0c-90,0 -163,74 -163,163zm1629 -4562l0 0c0,-90 73,-163 163,-163l489 0c89,0 163,73 163,163l0 0c0,89 -74,163 -163,163l-489 0c-90,0 -163,-74 -163,-163zm-1629 0l0 0c0,-90 73,-163 163,-163l488 0c90,0 163,73 163,163l0 0c0,89 -73,163 -163,163l-488 0c-90,0 -163,-74 -163,-163zm1629 3910l0 0c0,90 73,163 163,163l489 0c89,0 163,-73 163,-163l0 0c0,-89 -74,-163 -163,-163l-489 0c-90,0 -163,74 -163,163zm-1629 0l0 0c0,90 73,163 163,163l488 0c90,0 163,-73 163,-163l0 0c0,-89 -73,-163 -163,-163l-488 0c-90,0 -163,74 -163,163zm1629 -3258l0 0c0,-90 73,-163 163,-163l489 0c89,0 163,73 163,163l0 0c0,89 -74,162 -163,162l-489 0c-90,0 -163,-73 -163,-162zm-1629 0l0 0c0,-90 73,-163 163,-163l488 0c90,0 163,73 163,163l0 0c0,89 -73,162 -163,162l-488 0c-90,0 -163,-73 -163,-162zm1629 2607l0 0c0,89 73,163 163,163l489 0c89,0 163,-74 163,-163l0 0c0,-90 -74,-163 -163,-163l-489 0c-90,0 -163,73 -163,163zm-1629 0l0 0c0,89 73,163 163,163l488 0c90,0 163,-74 163,-163l0 0c0,-90 -73,-163 -163,-163l-488 0c-90,0 -163,73 -163,163zm1629 -1956l0 0c0,-89 73,-163 163,-163l489 0c89,0 163,74 163,163l0 0c0,90 -74,163 -163,163l-489 0c-90,0 -163,-73 -163,-163zm-1629 0l0 0c0,-89 73,-163 163,-163l488 0c90,0 163,74 163,163l0 0c0,90 -73,163 -163,163l-488 0c-90,0 -163,-73 -163,-163zm1629 1304l0 0c0,89 73,163 163,163l489 0c89,0 163,-74 163,-163l0 0c0,-90 -74,-163 -163,-163l-489 0c-90,0 -163,73 -163,163zm-1629 0l0 0c0,89 73,163 163,163l488 0c90,0 163,-74 163,-163l0 0c0,-90 -73,-163 -163,-163l-488 0c-90,0 -163,73 -163,163zm1629 -652l0 0c0,-90 73,-163 163,-163l489 0c89,0 163,73 163,163l0 0c0,90 -74,163 -163,163l-489 0c-90,0 -163,-73 -163,-163zm-1629 0l0 0c0,-90 73,-163 163,-163l488 0c90,0 163,73 163,163l0 0c0,90 -73,163 -163,163l-488 0c-90,0 -163,-73 -163,-163zm3673 664c0,-67 54,-122 122,-122 67,0 122,55 122,122 0,68 -55,122 -122,122 -68,0 -122,-54 -122,-122zm-5215 0c0,-67 55,-122 123,-122 67,0 122,55 122,122 0,68 -55,122 -122,122 -68,0 -123,-54 -123,-122zm3870 3939c0,-90 73,-163 163,-163 90,0 163,73 163,163 0,90 -73,163 -163,163 -90,0 -163,-73 -163,-163zm-2607 0c0,-90 73,-163 163,-163 90,0 163,73 163,163 0,90 -73,163 -163,163 -90,0 -163,-73 -163,-163zm530 -894l0 -244 1874 0 0 244 -1874 0zm0 2032l0 -245 1874 0 0 245 -1874 0zm2322 -10291c0,-90 -73,-163 -163,-163 -90,0 -163,73 -163,163 0,90 73,163 163,163 90,0 163,-73 163,-163zm-2770 0c0,-90 73,-163 163,-163 90,0 163,73 163,163 0,90 -73,163 -163,163 -90,0 -163,-73 -163,-163zm130 12353c0,-90 73,-163 163,-163 90,0 163,73 163,163 0,90 -73,163 -163,163 -90,0 -163,-73 -163,-163zm1092 0c0,-90 73,-163 163,-163 90,0 163,73 163,163 0,90 -73,163 -163,163 -90,0 -163,-73 -163,-163zm1088 0c0,-90 73,-163 163,-163 90,0 163,73 163,163 0,90 -73,163 -163,163 -90,0 -163,-73 -163,-163z"/>
  <path class="fil2 str0" d="M12578 5922l978 0 0 -245 -122 0 0 -244 0 -245 0 -244 163 0 0 -122 -821 -426c-59,-64 -144,-104 -238,-104 -180,0 -326,146 -326,326 0,180 146,326 326,326l162 0 0 244 0 245 0 244 -122 0 0 245zm-40 -1141c90,0 162,-73 162,-163 0,-90 -72,-163 -162,-163 -90,0 -163,73 -163,163 0,90 73,163 163,163z"/>
  <path class="fil2 str0" d="M12578 5922l978 0 0 -245 -122 0 0 -244 0 -245 0 -244 163 0 0 -122 -821 -426c-59,-64 -144,-104 -238,-104 -180,0 -326,146 -326,326 0,180 146,326 326,326l162 0 0 244 0 245 0 244 -122 0 0 245zm-40 -1141c90,0 162,-73 162,-163 0,-90 -72,-163 -162,-163 -90,0 -163,73 -163,163 0,90 73,163 163,163z"/>
  <path class="fil2 str0" d="M12578 6281l978 0 0 244 -122 0 0 245 0 244 0 244 163 0 0 123 -821 425c-59,64 -144,104 -238,104 -180,0 -326,-146 -326,-326 0,-180 146,-326 326,-326l162 0 0 -244 0 -244 0 -245 -122 0 0 -244zm-40 1140c90,0 162,73 162,163 0,90 -72,163 -162,163 -90,0 -163,-73 -163,-163 0,-90 73,-163 163,-163z"/>
  <path class="fil6 str0" d="M25442 5860l1412 0 0 489 244 0 734 0 1736 0 245 0 0 570 -244 0 0 408 244 0 0 325 0 326 -244 0 0 408 244 0 0 570 -245 0 -1736 0 -734 0 -244 0 0 489 -1412 0 0 -1793 0 -1792zm2390 2526l-244 0 0 -408 244 0 0 408zm-1669 326l407 0 0 -245 -407 0 0 245zm3243 168c90,0 163,-73 163,-163 0,-90 -73,-163 -163,-163 -90,0 -163,73 -163,163 0,90 73,163 163,163zm-3638 157c90,0 163,-73 163,-163 0,-90 -73,-162 -163,-162 -90,0 -163,72 -163,162 0,90 73,163 163,163zm2064 -2118l-244 0 0 408 244 0 0 -408zm-1669 -326l407 0 0 245 -407 0 0 -245zm3243 -169c90,0 163,73 163,163 0,90 -73,163 -163,163 -90,0 -163,-73 -163,-163 0,-90 73,-163 163,-163zm-3638 -157c90,0 163,73 163,163 0,90 -73,163 -163,163 -90,0 -163,-73 -163,-163 0,-90 73,-163 163,-163z"/>
  <polygon class="fil5 str0" points="19696,8984 19370,8984 19370,8739 18965,8739 18965,7925 19370,7925 19370,7680 19696,7680 19696,7925 20103,7925 20103,8739 19696,8739 "/>
  <polygon class="fil5 str0" points="21103,8984 20777,8984 20777,8739 20371,8739 20371,7925 20777,7925 20777,7680 21103,7680 21103,7925 21510,7925 21510,8739 21103,8739 "/>
  <path class="fil4 str0" d="M26025 13354l2277 0 244 0 0 3259 -244 0 -2277 0 -244 0 0 -3259 244 0zm2277 692l-245 0 0 1874 245 0 0 -1874zm-2277 1874l245 0 0 -1874 -245 0 0 1874zm1138 -2403c90,0 163,73 163,163 0,90 -73,163 -163,163 -90,0 -162,-73 -162,-163 0,-90 72,-163 162,-163zm0 2607c90,0 163,73 163,163 0,90 -73,163 -163,163 -90,0 -162,-73 -162,-163 0,-90 72,-163 162,-163z"/>
  <path class="fil5 str0" d="M21640 13259l151 0 719 453 6 0c54,40 121,63 193,63l1990 0 0 0c180,0 326,-146 326,-326 0,-180 -146,-326 -326,-326l-1 1 -1899 0 -466 -294c0,-180 -146,-326 -326,-326 -180,0 -326,146 -326,326l-41 0 -40 0c0,-180 -146,-326 -326,-326 -180,0 -326,146 -326,326l-466 294 -1899 0 -1 -1c-180,0 -326,146 -326,326 0,180 146,326 326,326l0 0 1990 0c72,0 139,-23 193,-63l5 0 720 -453 150 0zm-3221 190c0,-90 73,-163 163,-163 90,0 163,73 163,163 0,90 -73,163 -163,163 -90,0 -163,-73 -163,-163zm995 0c0,-90 73,-163 163,-163 90,0 163,73 163,163 0,90 -73,163 -163,163 -90,0 -163,-73 -163,-163zm995 0c0,-90 73,-163 163,-163 90,0 163,73 163,163 0,90 -73,163 -163,163 -90,0 -163,-73 -163,-163zm702 -619c0,-90 73,-163 163,-163 90,0 163,73 163,163 0,90 -73,163 -163,163 -90,0 -163,-73 -163,-163zm3751 619c0,-90 -73,-163 -163,-163 -90,0 -163,73 -163,163 0,90 73,163 163,163 90,0 163,-73 163,-163zm-995 0c0,-90 -73,-163 -163,-163 -90,0 -163,73 -163,163 0,90 73,163 163,163 90,0 163,-73 163,-163zm-995 0c0,-90 -73,-163 -163,-163 -90,0 -163,73 -163,163 0,90 73,163 163,163 90,0 163,-73 163,-163zm-702 -619c0,-90 -73,-163 -163,-163 -90,0 -163,73 -163,163 0,90 73,163 163,163 90,0 163,-73 163,-163z"/>
  <path class="fil5 str0" d="M21592 12202l151 0 719 453 6 0c54,40 121,64 193,64l1990 0 0 0c180,0 325,-146 325,-326 0,-180 -145,-326 -325,-326l-1 0 -1899 0 -466 -294c0,-180 -146,-326 -326,-326 -180,0 -326,146 -326,326l-41 0 -40 0c0,-180 -146,-326 -326,-326 -180,0 -326,146 -326,326l-466 294 -1899 0 -1 0c-180,0 -326,146 -326,326 0,180 146,326 326,326l0 0 1989 0c73,0 140,-24 194,-64l5 0 720 -453 150 0zm-3221 191c0,-90 73,-163 163,-163 90,0 163,73 163,163 0,90 -73,163 -163,163 -90,0 -163,-73 -163,-163zm995 0c0,-90 73,-163 163,-163 90,0 163,73 163,163 0,90 -73,163 -163,163 -90,0 -163,-73 -163,-163zm995 0c0,-90 72,-163 162,-163 90,0 163,73 163,163 0,90 -73,163 -163,163 -90,0 -162,-73 -162,-163zm702 -620c0,-90 73,-163 163,-163 90,0 163,73 163,163 0,90 -73,163 -163,163 -90,0 -163,-73 -163,-163zm3751 620c0,-90 -73,-163 -163,-163 -90,0 -163,73 -163,163 0,90 73,163 163,163 90,0 163,-73 163,-163zm-995 0c0,-90 -73,-163 -163,-163 -90,0 -163,73 -163,163 0,90 73,163 163,163 90,0 163,-73 163,-163zm-995 0c0,-90 -73,-163 -163,-163 -90,0 -163,73 -163,163 0,90 73,163 163,163 90,0 163,-73 163,-163zm-702 -620c0,-90 -73,-163 -163,-163 -90,0 -163,73 -163,163 0,90 73,163 163,163 90,0 163,-73 163,-163z"/>
  <path class="fil4 str0" d="M7393 17200l-245 0 0 -408 245 0 0 -122 0 -110 244 0 0 -489 262 0 410 0 404 0 937 0 403 0 925 0 0 599 0 122 212 0 32 0 0 408 -32 0 -212 0 0 122 -245 0 0 -122 -597 0 0 284 -8 0c7,22 10,46 10,70 0,35 -7,68 -20,98l0 0 0 0c-38,86 -124,147 -224,147 -100,0 -186,-61 -224,-147l-978 0c-37,86 -123,147 -224,147 -100,0 -186,-61 -224,-147l0 0 0 0c-13,-30 -20,-63 -20,-98 0,-24 4,-48 10,-70l0 -284 -597 0 0 122 -244 0 0 -122zm1320 -697l0 432 937 0 0 -432 -937 0zm-367 1051c0,68 55,122 122,122 68,0 123,-54 123,-122 0,-67 -55,-122 -123,-122 -67,0 -122,55 -122,122zm1426 0c0,68 55,122 122,122 68,0 122,-54 122,-122 0,-67 -54,-122 -122,-122 -67,0 -122,55 -122,122z"/>
  <path class="fil4 str0" d="M7434 15324l-244 0 0 -407 244 0 0 -123 0 -109 245 0 0 -489 261 0 373 0 441 0 937 0 441 0 887 0 0 598 0 123 212 0 32 0 0 407 -32 0 -212 0 0 122 -244 0 0 -122 -597 0 0 284 -8 0c6,22 10,46 10,70 0,35 -7,68 -20,98l0 0 0 0c-38,87 -124,147 -224,147 -101,0 -187,-60 -224,-147l-978 0c-38,87 -124,147 -224,147 -100,0 -186,-60 -224,-147l0 0 0 0c-13,-30 -21,-63 -21,-98 0,-24 4,-48 11,-70l0 -284 -597 0 0 122 -245 0 0 -122zm1320 -697l0 432 937 0 0 -432 -937 0zm-366 1051c0,68 54,123 122,123 67,0 122,-55 122,-123 0,-67 -55,-122 -122,-122 -68,0 -122,55 -122,122zm1425 0c0,68 55,123 123,123 67,0 122,-55 122,-123 0,-67 -55,-122 -122,-122 -68,0 -123,55 -123,122z"/>
  <path class="fil4 str0" d="M25185 13992c180,0 326,146 326,326 0,180 -146,326 -326,326l-326 0 0 -163 -244 0 0 244 -1630 0 0 -244 -244 0 0 163 -326 0c-180,0 -326,-146 -326,-326 0,-180 146,-326 326,-326l326 0 0 163 244 0 0 -244 1630 0 0 244 244 0 0 -163 326 0zm-2770 489c90,0 163,-73 163,-163 0,-90 -73,-163 -163,-163 -90,0 -163,73 -163,163 0,90 73,163 163,163zm1467 -41l326 0 0 -244 -326 0 0 244zm1303 -285c90,0 163,73 163,163 0,90 -73,163 -163,163 -90,0 -163,-73 -163,-163 0,-90 73,-163 163,-163zm-1874 0c90,0 163,73 163,163 0,90 -73,163 -163,163 -90,0 -163,-73 -163,-163 0,-90 73,-163 163,-163z"/>
  <path class="fil4 str0" d="M21373 13992c180,0 326,146 326,326 0,180 -146,326 -326,326l-326 0 0 -163 -244 0 0 244 -1630 0 0 -244 -244 0 0 163 -326 0c-180,0 -326,-146 -326,-326 0,-180 146,-326 326,-326l326 0 0 163 244 0 0 -244 1630 0 0 244 244 0 0 -163 326 0zm-2770 489c90,0 163,-73 163,-163 0,-90 -73,-163 -163,-163 -90,0 -163,73 -163,163 0,90 73,163 163,163zm1467 -41l326 0 0 -244 -326 0 0 244zm1303 -285c90,0 163,73 163,163 0,90 -73,163 -163,163 -90,0 -163,-73 -163,-163 0,-90 73,-163 163,-163zm-1874 0c90,0 163,73 163,163 0,90 -73,163 -163,163 -90,0 -163,-73 -163,-163 0,-90 73,-163 163,-163z"/>
  <path class="fil4 str0" d="M25185 14941c180,0 326,146 326,326 0,180 -146,325 -326,325l-326 0 0 -162 -244 0 0 244 -1630 0 0 -244 -244 0 0 162 -326 0c-180,0 -326,-145 -326,-325 0,-180 146,-326 326,-326l326 0 0 163 244 0 0 -245 1630 0 0 245 244 0 0 -163 326 0zm-2770 489c90,0 163,-73 163,-163 0,-90 -73,-163 -163,-163 -90,0 -163,73 -163,163 0,90 73,163 163,163zm1467 -41l326 0 0 -245 -326 0 0 245zm1303 -285c90,0 163,73 163,163 0,90 -73,163 -163,163 -90,0 -163,-73 -163,-163 0,-90 73,-163 163,-163zm-1874 0c90,0 163,73 163,163 0,90 -73,163 -163,163 -90,0 -163,-73 -163,-163 0,-90 73,-163 163,-163z"/>
  <path class="fil4 str0" d="M21373 14941c180,0 326,146 326,326 0,180 -146,325 -326,325l-326 0 0 -162 -244 0 0 244 -1630 0 0 -244 -244 0 0 162 -326 0c-180,0 -326,-145 -326,-325 0,-180 146,-326 326,-326l326 0 0 163 244 0 0 -245 1630 0 0 245 244 0 0 -163 326 0zm-2770 489c90,0 163,-73 163,-163 0,-90 -73,-163 -163,-163 -90,0 -163,73 -163,163 0,90 73,163 163,163zm1467 -41l326 0 0 -245 -326 0 0 245zm1303 -285c90,0 163,73 163,163 0,90 -73,163 -163,163 -90,0 -163,-73 -163,-163 0,-90 73,-163 163,-163zm-1874 0c90,0 163,73 163,163 0,90 -73,163 -163,163 -90,0 -163,-73 -163,-163 0,-90 73,-163 163,-163z"/>
  <path class="fil4 str0" d="M25185 15911c180,0 326,146 326,326 0,180 -146,325 -326,325l-326 0 0 -162 -244 0 0 244 -1630 0 0 -244 -244 0 0 162 -326 0c-180,0 -326,-145 -326,-325 0,-180 146,-326 326,-326l326 0 0 163 244 0 0 -245 1630 0 0 245 244 0 0 -163 326 0zm-2770 489c90,0 163,-73 163,-163 0,-90 -73,-163 -163,-163 -90,0 -163,73 -163,163 0,90 73,163 163,163zm1467 -41l326 0 0 -245 -326 0 0 245zm1303 -285c90,0 163,73 163,163 0,90 -73,163 -163,163 -90,0 -163,-73 -163,-163 0,-90 73,-163 163,-163zm-1874 0c90,0 163,73 163,163 0,90 -73,163 -163,163 -90,0 -163,-73 -163,-163 0,-90 73,-163 163,-163z"/>
  <path class="fil4 str0" d="M21373 15911c180,0 326,146 326,326 0,180 -146,325 -326,325l-326 0 0 -162 -244 0 0 244 -1630 0 0 -244 -244 0 0 162 -326 0c-180,0 -326,-145 -326,-325 0,-180 146,-326 326,-326l326 0 0 163 244 0 0 -245 1630 0 0 245 244 0 0 -163 326 0zm-2770 489c90,0 163,-73 163,-163 0,-90 -73,-163 -163,-163 -90,0 -163,73 -163,163 0,90 73,163 163,163zm1467 -41l326 0 0 -245 -326 0 0 245zm1303 -285c90,0 163,73 163,163 0,90 -73,163 -163,163 -90,0 -163,-73 -163,-163 0,-90 73,-163 163,-163zm-1874 0c90,0 163,73 163,163 0,90 -73,163 -163,163 -90,0 -163,-73 -163,-163 0,-90 73,-163 163,-163z"/>
  <path class="fil4 str0" d="M25185 16859c180,0 326,146 326,326 0,180 -146,326 -326,326l-326 0 0 -163 -244 0 0 244 -1630 0 0 -244 -244 0 0 163 -326 0c-180,0 -326,-146 -326,-326 0,-180 146,-326 326,-326l326 0 0 163 244 0 0 -244 1630 0 0 244 244 0 0 -163 326 0zm-2770 489c90,0 163,-73 163,-163 0,-90 -73,-163 -163,-163 -90,0 -163,73 -163,163 0,90 73,163 163,163zm1467 -41l326 0 0 -244 -326 0 0 244zm1303 -285c90,0 163,73 163,163 0,90 -73,163 -163,163 -90,0 -163,-73 -163,-163 0,-90 73,-163 163,-163zm-1874 0c90,0 163,73 163,163 0,90 -73,163 -163,163 -90,0 -163,-73 -163,-163 0,-90 73,-163 163,-163z"/>
  <path class="fil4 str0" d="M21373 16859c180,0 326,146 326,326 0,180 -146,326 -326,326l-326 0 0 -163 -244 0 0 244 -1630 0 0 -244 -244 0 0 163 -326 0c-180,0 -326,-146 -326,-326 0,-180 146,-326 326,-326l326 0 0 163 244 0 0 -244 1630 0 0 244 244 0 0 -163 326 0zm-2770 489c90,0 163,-73 163,-163 0,-90 -73,-163 -163,-163 -90,0 -163,73 -163,163 0,90 73,163 163,163zm1467 -41l326 0 0 -244 -326 0 0 244zm1303 -285c90,0 163,73 163,163 0,90 -73,163 -163,163 -90,0 -163,-73 -163,-163 0,-90 73,-163 163,-163zm-1874 0c90,0 163,73 163,163 0,90 -73,163 -163,163 -90,0 -163,-73 -163,-163 0,-90 73,-163 163,-163z"/>
  <path class="fil6 str0" d="M34550 14370c180,0 326,146 326,326 0,180 -146,326 -326,326 -180,0 -326,-146 -326,-326 0,-180 146,-326 326,-326zm-122 106l244 0 0 98 98 0 0 244 -98 0 0 98 -244 0 0 -98 -98 0 0 -244 98 0 0 -98z"/>
  <path class="fil6 str0" d="M32452 14370c180,0 326,146 326,326 0,180 -146,326 -326,326 -180,0 -326,-146 -326,-326 0,-180 146,-326 326,-326zm-122 106l244 0 0 98 98 0 0 244 -98 0 0 98 -244 0 0 -98 -98 0 0 -244 98 0 0 -98z"/>
  <path class="fil6 str0" d="M32452 15203c180,0 326,146 326,326 0,180 -146,326 -326,326 -180,0 -326,-146 -326,-326 0,-180 146,-326 326,-326zm-122 106l244 0 0 98 98 0 0 245 -98 0 0 97 -244 0 0 -97 -98 0 0 -245 98 0 0 -98z"/>
  <path class="fil6 str0" d="M34564 15160c180,0 326,146 326,326 0,180 -146,326 -326,326 -180,0 -326,-146 -326,-326 0,-180 146,-326 326,-326zm-122 106l245 0 0 98 97 0 0 244 -97 0 0 98 -245 0 0 -98 -98 0 0 -244 98 0 0 -98z"/>
  <path class="fil1 str0" d="M28681 17091l0 -1873 98 0 0 244 245 0 0 -244 97 0 0 1873 -440 0zm98 -814l0 -245 245 0 0 245 -245 0z"/>
  <path class="fil1 str0" d="M28693 14903l0 -1873 98 0 0 244 244 0 0 -244 98 0 0 1873 -440 0zm98 -814l0 -245 244 0 0 245 -244 0z"/>
  <path class="fil1 str0" d="M29218 17091l0 -1873 97 0 0 244 245 0 0 -244 98 0 0 1873 -440 0zm97 -814l0 -245 245 0 0 245 -245 0z"/>
  <path class="fil1 str0" d="M29229 14903l0 -1873 98 0 0 244 244 0 0 -244 98 0 0 1873 -440 0zm98 -814l0 -245 244 0 0 245 -244 0z"/>
  <polygon class="fil7 str0" points="17077,14957 18137,14957 18137,15397 17077,15397 17077,15299 17077,15259 17322,15259 17322,15299 17892,15299 17892,15055 17322,15055 17322,15096 17077,15096 17077,15055 "/>
  <polygon class="fil7 str0" points="17077,16004 18137,16004 18137,16444 17077,16444 17077,16346 17077,16305 17322,16305 17322,16346 17892,16346 17892,16101 17322,16101 17322,16142 17077,16142 17077,16101 "/>
  <polygon class="fil7 str0" points="17077,15493 18137,15493 18137,15933 17077,15933 17077,15836 17077,15795 17322,15795 17322,15836 17892,15836 17892,15591 17322,15591 17322,15632 17077,15632 17077,15591 "/>
  <polygon class="fil7 str0" points="17077,16540 18137,16540 18137,16980 17077,16980 17077,16882 17077,16841 17322,16841 17322,16882 17892,16882 17892,16638 17322,16638 17322,16678 17077,16678 17077,16638 "/>
 </g>
</svg>
