<?xml version="1.0" encoding="UTF-8"?>
<!DOCTYPE svg PUBLIC "-//W3C//DTD SVG 1.1//EN" "http://www.w3.org/Graphics/SVG/1.1/DTD/svg11.dtd">
<!-- Creator: CorelDRAW X7 -->
<svg xmlns="http://www.w3.org/2000/svg" xml:space="preserve" width="34.2mm" height="38.2mm" version="1.1" style="shape-rendering:geometricPrecision; text-rendering:geometricPrecision; image-rendering:optimizeQuality; fill-rule:evenodd; clip-rule:evenodd"
viewBox="0 0 243 272"
 xmlns:xlink="http://www.w3.org/1999/xlink">
 <defs>
  <style type="text/css">
   <![CDATA[
    .str0 {stroke:black;stroke-width:1.4233}
    .fil0 {fill:#CCCC33}
   ]]>
  </style>
 </defs>
 <g id="Layer_x0020_1">
  <metadata id="CorelCorpID_0Corel-Layer"/>
  <path class="fil0 str0" d="M86 1l71 0c8,0 15,6 15,14l0 11c41,19 71,61 71,110 0,49 -30,91 -71,110l0 11c0,8 -7,14 -15,14l-71 0c-8,0 -14,-6 -14,-14l0 -11c-42,-19 -71,-61 -71,-110 0,-49 29,-91 71,-110l0 -11c0,-8 6,-14 14,-14zm4 21l64 0 0 27c35,13 60,47 60,87 0,40 -25,74 -60,87l0 27 -64 0 0 -27c-36,-13 -61,-47 -61,-87 0,-40 25,-74 61,-87l0 -27z"/>
 </g>
</svg>
