<?xml version="1.0" encoding="UTF-8"?>
<!DOCTYPE svg PUBLIC "-//W3C//DTD SVG 1.1//EN" "http://www.w3.org/Graphics/SVG/1.1/DTD/svg11.dtd">
<!-- Creator: CorelDRAW X7 -->
<svg xmlns="http://www.w3.org/2000/svg" xml:space="preserve" width="40.2mm" height="40.2mm" version="1.1" style="shape-rendering:geometricPrecision; text-rendering:geometricPrecision; image-rendering:optimizeQuality; fill-rule:evenodd; clip-rule:evenodd"
viewBox="0 0 286 286"
 xmlns:xlink="http://www.w3.org/1999/xlink">
 <defs>
  <style type="text/css">
   <![CDATA[
    .str0 {stroke:black;stroke-width:1.42516}
    .fil0 {fill:#CCCC33}
   ]]>
  </style>
 </defs>
 <g id="Layer_x0020_1">
  <metadata id="CorelCorpID_0Corel-Layer"/>
  <path class="fil0 str0" d="M143 1c79,0 143,64 143,142 0,79 -64,143 -143,143 -78,0 -142,-64 -142,-143 0,-78 64,-142 142,-142zm43 85c17,13 28,34 28,57 0,24 -11,44 -28,57l0 58 -86 0 0 -58c-17,-13 -28,-33 -28,-57 0,-23 11,-44 28,-57l0 -57 86 0 0 57z"/>
 </g>
</svg>
