<?xml version="1.0" encoding="UTF-8"?>
<!DOCTYPE svg PUBLIC "-//W3C//DTD SVG 1.1//EN" "http://www.w3.org/Graphics/SVG/1.1/DTD/svg11.dtd">
<!-- Creator: CorelDRAW X7 -->
<svg xmlns="http://www.w3.org/2000/svg" xml:space="preserve" width="84.2mm" height="165.2mm" version="1.1" style="shape-rendering:geometricPrecision; text-rendering:geometricPrecision; image-rendering:optimizeQuality; fill-rule:evenodd; clip-rule:evenodd"
viewBox="0 0 3798 7451"
 xmlns:xlink="http://www.w3.org/1999/xlink">
 <defs>
  <style type="text/css">
   <![CDATA[
    .str0 {stroke:black;stroke-width:9.02043}
    .fil0 {fill:#FF0066}
   ]]>
  </style>
 </defs>
 <g id="Layer_x0020_1">
  <metadata id="CorelCorpID_0Corel-Layer"/>
  <path class="fil0 str0" d="M5 5372l0 -4420 947 -947 360 0 0 180 136 0 0 -180 902 0 0 180 135 0 0 -180 361 0 947 947 0 4420 -902 902 0 947 -225 225 -384 0 0 -180 -767 0 0 180 -383 0 -225 -225 0 -947 -902 -902zm2138 -1135l0 0c0,50 41,91 90,91l271 0c50,0 90,-41 90,-91l0 0c0,-49 -40,-90 -90,-90l-271 0c-49,0 -90,41 -90,90zm-902 0l0 0c0,50 41,91 90,91l271 0c50,0 90,-41 90,-91l0 0c0,-49 -40,-90 -90,-90l-271 0c-49,0 -90,41 -90,90zm902 -2525l0 0c0,-50 41,-91 90,-91l271 0c50,0 90,41 90,91l0 0c0,49 -40,90 -90,90l-271 0c-49,0 -90,-41 -90,-90zm-902 0l0 0c0,-50 41,-91 90,-91l271 0c50,0 90,41 90,91l0 0c0,49 -40,90 -90,90l-271 0c-49,0 -90,-41 -90,-90zm902 2164l0 1c0,49 41,90 90,90l271 0c50,0 90,-41 90,-90l0 -1c0,-49 -40,-90 -90,-90l-271 0c-49,0 -90,41 -90,90zm-902 0l0 1c0,49 41,90 90,90l271 0c50,0 90,-41 90,-90l0 -1c0,-49 -40,-90 -90,-90l-271 0c-49,0 -90,41 -90,90zm902 -1804l0 0c0,-49 41,-90 90,-90l271 0c50,0 90,41 90,90l0 0c0,50 -40,91 -90,91l-271 0c-49,0 -90,-41 -90,-91zm-902 0l0 0c0,-49 41,-90 90,-90l271 0c50,0 90,41 90,90l0 0c0,50 -40,91 -90,91l-271 0c-49,0 -90,-41 -90,-91zm902 1444l0 0c0,49 41,90 90,90l271 0c50,0 90,-41 90,-90l0 0c0,-50 -40,-91 -90,-91l-271 0c-49,0 -90,41 -90,91zm-902 0l0 0c0,49 41,90 90,90l271 0c50,0 90,-41 90,-90l0 0c0,-50 -40,-91 -90,-91l-271 0c-49,0 -90,41 -90,91zm902 -1083l0 0c0,-49 41,-90 90,-90l271 0c50,0 90,41 90,90l0 0c0,50 -40,90 -90,90l-271 0c-49,0 -90,-40 -90,-90zm-902 0l0 0c0,-49 41,-90 90,-90l271 0c50,0 90,41 90,90l0 0c0,50 -40,90 -90,90l-271 0c-49,0 -90,-40 -90,-90zm902 722l0 0c0,49 41,90 90,90l271 0c50,0 90,-41 90,-90l0 0c0,-50 -40,-90 -90,-90l-271 0c-49,0 -90,40 -90,90zm-902 0l0 0c0,49 41,90 90,90l271 0c50,0 90,-41 90,-90l0 0c0,-50 -40,-90 -90,-90l-271 0c-49,0 -90,40 -90,90zm902 -361l0 0c0,-50 41,-90 90,-90l271 0c50,0 90,40 90,90l0 0c0,50 -40,90 -90,90l-271 0c-49,0 -90,-40 -90,-90zm-902 0l0 0c0,-50 41,-90 90,-90l271 0c50,0 90,40 90,90l0 0c0,50 -40,90 -90,90l-271 0c-49,0 -90,-40 -90,-90zm2033 368c0,-38 31,-68 68,-68 37,0 68,30 68,68 0,37 -31,67 -68,67 -37,0 -68,-30 -68,-67zm-2886 0c0,-38 30,-68 68,-68 37,0 67,30 67,68 0,37 -30,67 -67,67 -38,0 -68,-30 -68,-67zm2142 2180c0,-50 41,-90 90,-90 50,0 91,40 91,90 0,50 -41,90 -91,90 -49,0 -90,-40 -90,-90zm-1443 0c0,-50 40,-90 90,-90 50,0 90,40 90,90 0,50 -40,90 -90,90 -50,0 -90,-40 -90,-90zm293 -495l0 -135 1037 0 0 135 -1037 0zm0 1125l0 -135 1037 0 0 135 -1037 0zm1286 -5697c0,-50 -41,-90 -91,-90 -49,0 -90,40 -90,90 0,50 41,90 90,90 50,0 91,-40 91,-90zm-1534 0c0,-50 40,-90 90,-90 50,0 90,40 90,90 0,50 -40,90 -90,90 -50,0 -90,-40 -90,-90zm72 6839c0,-50 41,-91 91,-91 49,0 90,41 90,91 0,49 -41,90 -90,90 -50,0 -91,-41 -91,-90zm605 0c0,-50 40,-91 90,-91 50,0 90,41 90,91 0,49 -40,90 -90,90 -50,0 -90,-41 -90,-90zm602 0c0,-50 40,-91 90,-91 50,0 90,41 90,91 0,49 -40,90 -90,90 -50,0 -90,-41 -90,-90z"/>
 </g>
</svg>
